<?xml version="1.0" encoding="utf-8"?>
<!-- Generator: Adobe Illustrator 22.0.1, SVG Export Plug-In . SVG Version: 6.00 Build 0)  -->
<svg xmlns="http://www.w3.org/2000/svg" xmlns:xlink="http://www.w3.org/1999/xlink" version="1.1" x="0px" y="0px" viewBox="0 0 256 256" style="enable-background:new 0 0 256 256;" xml:space="preserve" width="512" height="512">
<style type="text/css">
	.st0{display:none;}
	.st1{display:inline;}
	.st2{fill:none;stroke:#6B1D1D;stroke-width:0.5;stroke-miterlimit:10;}
	.st3{fill:#3A312A;}
	.st4{fill:#F16C7A;}
	.st5{fill:#D7E057;}
	.st6{fill:#87796F;}
	.st7{fill:#CE4E61;}
	.st8{fill-rule:evenodd;clip-rule:evenodd;fill:#D7E057;}
	.st9{fill-rule:evenodd;clip-rule:evenodd;fill:#FCE8CB;}
	.st10{fill:#B9BC39;}
	.st11{fill:#8AC6DD;}
	.st12{fill:#FCE8CB;}
	.st13{fill:#CCAE8B;}
	.st14{fill:#6B5B51;}
	.st15{fill:#68A8BC;}
	.st16{fill:#F5978A;}
	.st17{fill-rule:evenodd;clip-rule:evenodd;fill:#F16C7A;}
	.st18{fill-rule:evenodd;clip-rule:evenodd;fill:#8AC6DD;}
</style>
<g id="Layer_1" class="st0">
	<g class="st1">
		<g>
			<line class="st2" x1="0" y1="4.829" x2="256" y2="4.829"/>
			<line class="st2" x1="0" y1="16.56" x2="256" y2="16.56"/>
			<line class="st2" x1="0" y1="28.29" x2="256" y2="28.29"/>
			<line class="st2" x1="0" y1="40.021" x2="256" y2="40.021"/>
			<line class="st2" x1="0" y1="51.751" x2="256" y2="51.751"/>
			<line class="st2" x1="0" y1="63.482" x2="256" y2="63.482"/>
			<line class="st2" x1="0" y1="75.213" x2="256" y2="75.213"/>
			<line class="st2" x1="0" y1="86.943" x2="256" y2="86.943"/>
			<line class="st2" x1="0" y1="98.674" x2="256" y2="98.674"/>
			<line class="st2" x1="0" y1="110.404" x2="256" y2="110.404"/>
			<line class="st2" x1="0" y1="122.135" x2="256" y2="122.135"/>
			<line class="st2" x1="0" y1="133.865" x2="256" y2="133.865"/>
			<line class="st2" x1="0" y1="145.596" x2="256" y2="145.596"/>
			<line class="st2" x1="0" y1="157.326" x2="256" y2="157.326"/>
			<line class="st2" x1="0" y1="169.057" x2="256" y2="169.057"/>
			<line class="st2" x1="0" y1="180.788" x2="256" y2="180.788"/>
			<line class="st2" x1="0" y1="192.518" x2="256" y2="192.518"/>
			<line class="st2" x1="0" y1="204.249" x2="256" y2="204.249"/>
			<line class="st2" x1="0" y1="215.979" x2="256" y2="215.979"/>
			<line class="st2" x1="0" y1="227.71" x2="256" y2="227.71"/>
			<line class="st2" x1="0" y1="239.44" x2="256" y2="239.44"/>
			<line class="st2" x1="0" y1="251.171" x2="256" y2="251.171"/>
		</g>
		<g>
			<line class="st2" x1="251.171" y1="0" x2="251.171" y2="256"/>
			<line class="st2" x1="239.44" y1="0" x2="239.44" y2="256"/>
			<line class="st2" x1="227.71" y1="0" x2="227.71" y2="256"/>
			<line class="st2" x1="215.979" y1="0" x2="215.979" y2="256"/>
			<line class="st2" x1="204.249" y1="0" x2="204.249" y2="256"/>
			<line class="st2" x1="192.518" y1="0" x2="192.518" y2="256"/>
			<line class="st2" x1="180.788" y1="0" x2="180.788" y2="256"/>
			<line class="st2" x1="169.057" y1="0" x2="169.057" y2="256"/>
			<line class="st2" x1="157.326" y1="0" x2="157.326" y2="256"/>
			<line class="st2" x1="145.596" y1="0" x2="145.596" y2="256"/>
			<line class="st2" x1="133.865" y1="0" x2="133.865" y2="256"/>
			<line class="st2" x1="122.135" y1="0" x2="122.135" y2="256"/>
			<line class="st2" x1="110.404" y1="0" x2="110.404" y2="256"/>
			<line class="st2" x1="98.674" y1="0" x2="98.674" y2="256"/>
			<line class="st2" x1="86.943" y1="0" x2="86.943" y2="256"/>
			<line class="st2" x1="75.213" y1="0" x2="75.213" y2="256"/>
			<line class="st2" x1="63.482" y1="0" x2="63.482" y2="256"/>
			<line class="st2" x1="51.751" y1="0" x2="51.751" y2="256"/>
			<line class="st2" x1="40.021" y1="0" x2="40.021" y2="256"/>
			<line class="st2" x1="28.29" y1="0" x2="28.29" y2="256"/>
			<line class="st2" x1="16.56" y1="0" x2="16.56" y2="256"/>
			<line class="st2" x1="4.829" y1="0" x2="4.829" y2="256"/>
		</g>
	</g>
</g>
<g id="Layer_2">
	<g>
		<g>
			<g>
				<path class="st12" d="M166.317,40.021H35.432c-9.898,0-17.921,8.024-17.921,17.921v163.577c0,9.898,8.024,17.921,17.921,17.921      h130.885c9.898,0,17.921-8.024,17.921-17.921V57.942C184.238,48.045,176.215,40.021,166.317,40.021z"/>
			</g>
		</g>
		<g>
			<g>
				<path class="st3" d="M166.316,38.521H35.432c-10.709,0-19.421,8.712-19.421,19.421v83.652c0,0.829,0.672,1.5,1.5,1.5      s1.5-0.671,1.5-1.5V57.942c0-9.055,7.366-16.421,16.421-16.421h130.885c9.055,0,16.422,7.367,16.422,16.421v163.577      c0,9.055-7.367,16.421-16.422,16.421H35.432c-9.055,0-16.421-7.367-16.421-16.421v-64.614c0-0.829-0.672-1.5-1.5-1.5      s-1.5,0.671-1.5,1.5v64.614c0,10.709,8.712,19.421,19.421,19.421h130.885c10.709,0,19.422-8.712,19.422-19.421V57.942      C185.738,47.233,177.025,38.521,166.316,38.521z"/>
			</g>
		</g>
		<g>
			<g>
				<path class="st6" d="M166.317,40.021H35.432c-9.898,0-17.922,8.024-17.922,17.922V68h103.117h14.695h48.915V57.942      C184.238,48.045,176.214,40.021,166.317,40.021z"/>
			</g>
		</g>
		<g>
			<g>
				<path class="st3" d="M166.316,38.521H35.433c-10.709,0-19.422,8.712-19.422,19.421V68c0,0.829,0.672,1.5,1.5,1.5h103.117      c0.828,0,1.5-0.671,1.5-1.5s-0.672-1.5-1.5-1.5H19.011v-8.558c0-9.055,7.367-16.421,16.422-16.421h130.884      c9.055,0,16.422,7.367,16.422,16.421V66.5h-47.415c-0.828,0-1.5,0.671-1.5,1.5s0.672,1.5,1.5,1.5h48.915      c0.828,0,1.5-0.671,1.5-1.5V57.942C185.738,47.233,177.025,38.521,166.316,38.521z"/>
			</g>
		</g>
		<g>
			<g>
				<path class="st5" d="M71.602,85.177H49.742c-4.175,0-7.56,3.385-7.56,7.56v21.859c0,4.175,3.385,7.56,7.56,7.56h21.859      c4.175,0,7.56-3.385,7.56-7.56V92.737C79.162,88.562,75.777,85.177,71.602,85.177z"/>
			</g>
		</g>
		<g>
			<g>
				<path class="st3" d="M71.602,83.677H49.742c-4.995,0-9.06,4.065-9.06,9.06v21.859c0,4.996,4.064,9.06,9.06,9.06h21.859      c4.995,0,9.06-4.065,9.06-9.06V92.737C80.661,87.742,76.597,83.677,71.602,83.677z M77.661,114.596      c0,3.341-2.719,6.06-6.06,6.06H49.742c-3.341,0-6.06-2.719-6.06-6.06V92.737c0-3.341,2.719-6.06,6.06-6.06h21.859      c3.341,0,6.06,2.719,6.06,6.06V114.596z"/>
			</g>
		</g>
		<g>
			<g>
				<path class="st3" d="M163.861,102.167H93.828c-0.828,0-1.5,0.671-1.5,1.5c0,0.829,0.672,1.5,1.5,1.5h70.033      c0.828,0,1.5-0.671,1.5-1.5C165.361,102.838,164.689,102.167,163.861,102.167z"/>
			</g>
		</g>
		<g>
			<g>
				<path class="st5" d="M71.602,136.177H49.742c-4.175,0-7.56,3.385-7.56,7.56v21.859c0,4.175,3.385,7.56,7.56,7.56h21.859      c4.175,0,7.56-3.385,7.56-7.56v-21.859C79.162,139.562,75.777,136.177,71.602,136.177z"/>
			</g>
		</g>
		<g>
			<g>
				<path class="st3" d="M71.602,134.677H49.742c-4.995,0-9.06,4.065-9.06,9.06v21.859c0,4.996,4.064,9.06,9.06,9.06h21.859      c4.995,0,9.06-4.065,9.06-9.06v-21.859C80.661,138.742,76.597,134.677,71.602,134.677z M77.661,165.596      c0,3.341-2.719,6.06-6.06,6.06H49.742c-3.341,0-6.06-2.719-6.06-6.06v-21.859c0-3.341,2.719-6.06,6.06-6.06h21.859      c3.341,0,6.06,2.719,6.06,6.06V165.596z"/>
			</g>
		</g>
		<g>
			<g>
				<path class="st3" d="M163.861,153.167H93.828c-0.828,0-1.5,0.671-1.5,1.5c0,0.829,0.672,1.5,1.5,1.5h70.033      c0.828,0,1.5-0.671,1.5-1.5C165.361,153.838,164.689,153.167,163.861,153.167z"/>
			</g>
		</g>
		<g>
			<g>
				<path class="st5" d="M71.602,187.177H49.742c-4.175,0-7.56,3.385-7.56,7.56v21.859c0,4.175,3.385,7.56,7.56,7.56h21.859      c4.175,0,7.56-3.385,7.56-7.56v-21.859C79.162,190.562,75.777,187.177,71.602,187.177z"/>
			</g>
		</g>
		<g>
			<g>
				<path class="st3" d="M71.602,185.677H49.742c-4.995,0-9.06,4.065-9.06,9.06v21.859c0,4.996,4.064,9.06,9.06,9.06h21.859      c4.995,0,9.06-4.065,9.06-9.06v-21.859C80.661,189.742,76.597,185.677,71.602,185.677z M77.661,216.596      c0,3.341-2.719,6.06-6.06,6.06H49.742c-3.341,0-6.06-2.719-6.06-6.06v-21.859c0-3.341,2.719-6.06,6.06-6.06h21.859      c3.341,0,6.06,2.719,6.06,6.06V216.596z"/>
			</g>
		</g>
		<g>
			<g>
				<path class="st3" d="M163.861,204.167H93.828c-0.828,0-1.5,0.671-1.5,1.5c0,0.829,0.672,1.5,1.5,1.5h70.033      c0.828,0,1.5-0.671,1.5-1.5C165.361,204.838,164.689,204.167,163.861,204.167z"/>
			</g>
		</g>
		<g>
			<g>
				<path class="st3" d="M73.491,93.125c-0.621-0.551-1.568-0.493-2.117,0.125l-14.143,15.923l-7.455-7.455      c-0.586-0.586-1.535-0.586-2.121,0c-0.586,0.585-0.586,1.536,0,2.121l8.58,8.58c0.281,0.282,0.663,0.44,1.061,0.44      c0.015,0,0.029,0,0.044,0c0.413-0.012,0.803-0.194,1.077-0.503l15.199-17.113C74.167,94.623,74.11,93.675,73.491,93.125z"/>
			</g>
		</g>
		<g>
			<g>
				<path class="st3" d="M73.491,143.958c-0.621-0.551-1.568-0.493-2.117,0.125l-14.143,15.923l-7.455-7.455      c-0.586-0.586-1.535-0.586-2.121,0c-0.586,0.585-0.586,1.536,0,2.121l8.58,8.58c0.281,0.282,0.663,0.44,1.061,0.44      c0.015,0,0.029,0,0.044,0c0.413-0.012,0.803-0.194,1.077-0.503l15.199-17.113C74.167,145.456,74.11,144.508,73.491,143.958z"/>
			</g>
		</g>
		<g>
			<g>
				<path class="st3" d="M73.491,195.458c-0.621-0.551-1.568-0.493-2.117,0.125l-14.143,15.923l-7.455-7.455      c-0.586-0.586-1.535-0.586-2.121,0c-0.586,0.585-0.586,1.536,0,2.121l8.58,8.58c0.281,0.282,0.663,0.44,1.061,0.44      c0.015,0,0.029,0,0.044,0c0.413-0.012,0.803-0.194,1.077-0.503l15.199-17.113C74.167,196.956,74.11,196.008,73.491,195.458z"/>
			</g>
		</g>
		<g>
			<g>
				<path class="st5" d="M221.885,26.237C220.911,37.8,208.86,39.626,208.86,39.626c10.347,0.487,12.925,14.059,12.925,14.059      c0.221-9.677,13.321-14.202,13.321-14.202C225.293,38.896,221.885,26.237,221.885,26.237z"/>
			</g>
		</g>
		<g>
			<g>
				<path class="st3" d="M235.196,37.985c-8.604-0.514-11.832-12.024-11.863-12.14c-0.19-0.702-0.848-1.161-1.584-1.102      c-0.725,0.066-1.298,0.642-1.359,1.367c-0.859,10.215-11.313,11.963-11.754,12.032c-0.763,0.115-1.313,0.79-1.273,1.561      c0.04,0.77,0.657,1.384,1.428,1.421c9.027,0.425,11.498,12.718,11.521,12.842c0.138,0.711,0.76,1.217,1.473,1.217      c0.042,0,0.084-0.002,0.126-0.005c0.764-0.064,1.357-0.693,1.375-1.46c0.194-8.508,12.191-12.777,12.313-12.819      c0.676-0.235,1.092-0.915,0.994-1.623C236.493,38.569,235.91,38.028,235.196,37.985z M221.63,48.331      c-1.356-3.13-3.709-6.907-7.587-8.876c2.932-1.405,6.409-3.913,8.202-8.273c1.551,3.071,4.2,6.88,8.334,8.722      C227.572,41.544,223.656,44.31,221.63,48.331z"/>
			</g>
		</g>
		<g>
			<g>
				<path class="st5" d="M200.186,43.217c-0.689,8.179-9.212,9.471-9.212,9.471c7.318,0.344,9.142,9.944,9.142,9.944      c0.156-6.845,9.422-10.045,9.422-10.045C202.596,52.171,200.186,43.217,200.186,43.217z"/>
			</g>
		</g>
		<g>
			<g>
				<path class="st3" d="M209.628,51.089c-5.767-0.345-7.973-8.185-7.995-8.264c-0.189-0.702-0.855-1.163-1.581-1.102      c-0.726,0.065-1.3,0.643-1.361,1.368c-0.578,6.871-7.646,8.067-7.941,8.114c-0.763,0.115-1.313,0.79-1.273,1.56      c0.04,0.77,0.657,1.384,1.428,1.421c6.035,0.284,7.723,8.644,7.738,8.726c0.136,0.713,0.759,1.22,1.473,1.22      c0.041,0,0.083-0.001,0.124-0.005c0.766-0.063,1.359-0.694,1.377-1.461c0.13-5.71,8.332-8.634,8.413-8.662      c0.676-0.234,1.093-0.913,0.996-1.622C210.927,51.673,210.342,51.132,209.628,51.089z M200.043,57.884      c-0.924-1.886-2.34-3.947-4.447-5.28c1.855-1.041,3.697-2.63,4.87-4.917c1.058,1.874,2.655,3.955,4.941,5.224      C203.558,54.012,201.419,55.652,200.043,57.884z"/>
			</g>
		</g>
		<g>
			<g>
				<path class="st5" d="M200.186,16.56c-0.689,8.179-9.212,9.47-9.212,9.47c7.318,0.344,9.142,9.944,9.142,9.944      c0.156-6.845,9.422-10.045,9.422-10.045C202.596,25.514,200.186,16.56,200.186,16.56z"/>
			</g>
		</g>
		<g>
			<g>
				<path class="st3" d="M209.628,24.432c-5.767-0.345-7.973-8.185-7.995-8.265c-0.189-0.702-0.855-1.162-1.581-1.102      c-0.726,0.065-1.3,0.643-1.361,1.368c-0.578,6.871-7.646,8.067-7.941,8.114c-0.763,0.115-1.313,0.79-1.273,1.561      c0.04,0.77,0.657,1.384,1.428,1.421c6.035,0.284,7.723,8.644,7.738,8.726c0.136,0.713,0.759,1.22,1.473,1.22      c0.041,0,0.083-0.002,0.124-0.005c0.766-0.063,1.359-0.694,1.377-1.461c0.13-5.71,8.332-8.634,8.412-8.662      c0.677-0.234,1.094-0.913,0.997-1.622C210.927,25.016,210.342,24.475,209.628,24.432z M200.043,31.227      c-0.924-1.886-2.34-3.947-4.447-5.28c1.855-1.041,3.697-2.63,4.87-4.916c1.058,1.874,2.655,3.954,4.941,5.224      C203.558,27.354,201.419,28.995,200.043,31.227z"/>
			</g>
		</g>
		<g>
			<g>
				
					<rect x="117.64" y="148.457" transform="matrix(0.4893 -0.8721 0.8721 0.4893 -40.9639 245.9724)" class="st4" width="143.812" height="19.014"/>
			</g>
		</g>
		<g>
			<g>
				<path class="st3" d="M233.757,98.599l-16.582-9.304c-0.347-0.194-0.755-0.244-1.141-0.136c-0.383,0.107-0.707,0.363-0.902,0.71      l-70.371,125.419c-0.194,0.347-0.243,0.757-0.136,1.14c0.108,0.383,0.363,0.707,0.71,0.902l16.583,9.304      c0.232,0.13,0.484,0.192,0.733,0.192c0.524,0,1.034-0.276,1.31-0.767l70.37-125.419      C234.736,99.918,234.479,99.004,233.757,98.599z M162.078,223.283l-13.967-7.836l68.903-122.803l13.966,7.836L162.078,223.283z"/>
			</g>
		</g>
		<g>
			<g>
				
					<rect x="154.1" y="148.457" transform="matrix(0.4893 -0.8721 0.8721 0.4893 -40.964 245.9723)" class="st11" width="70.892" height="19.014"/>
			</g>
		</g>
		<g>
			<g>
				<path class="st3" d="M215.916,130.396l-16.582-9.304c-0.347-0.195-0.755-0.244-1.141-0.136c-0.383,0.107-0.707,0.363-0.902,0.71      l-34.689,61.825c-0.405,0.722-0.147,1.637,0.574,2.042l16.582,9.304c0.227,0.127,0.479,0.192,0.734,0.192      c0.136,0,0.272-0.018,0.406-0.056c0.383-0.107,0.707-0.363,0.902-0.71l34.689-61.825      C216.896,131.715,216.638,130.801,215.916,130.396z M179.918,191.487l-13.966-7.836l33.222-59.209l13.966,7.836L179.918,191.487      z"/>
			</g>
		</g>
		<g>
			<g>
				<path class="st5" d="M232.733,80.993c-4.579-2.569-10.374-0.94-12.943,3.639l-3.35,5.971l16.582,9.304l3.35-5.971      C238.942,89.357,237.312,83.562,232.733,80.993z"/>
			</g>
		</g>
		<g>
			<g>
				<path class="st3" d="M238.678,86.305c-0.796-2.831-2.646-5.182-5.21-6.62c-5.293-2.969-12.017-1.079-14.986,4.213l-3.35,5.971      c-0.405,0.723-0.147,1.637,0.574,2.042l16.582,9.304c0.227,0.127,0.479,0.192,0.734,0.192c0.136,0,0.272-0.018,0.406-0.056      c0.383-0.107,0.707-0.363,0.902-0.71l3.35-5.971C239.119,92.106,239.473,89.135,238.678,86.305z M235.063,93.202l-2.615,4.663      l-13.966-7.836l2.616-4.663c2.159-3.85,7.05-5.226,10.9-3.065c1.865,1.046,3.212,2.757,3.79,4.816      C236.368,89.176,236.11,91.337,235.063,93.202z"/>
			</g>
		</g>
		<g>
			<g>
				<path class="st6" d="M146.07,216.021l-0.774,16.223c-0.099,2.065,2.202,3.356,3.913,2.196l13.443-9.115L146.07,216.021z"/>
			</g>
		</g>
		<g>
			<g>
				<path class="st3" d="M163.387,224.017l-16.583-9.304c-0.455-0.255-1.008-0.257-1.461-0.004      c-0.455,0.252-0.747,0.721-0.771,1.241l-0.773,16.223c-0.073,1.526,0.709,2.939,2.042,3.686c0.615,0.346,1.29,0.517,1.964,0.517      c0.784,0,1.566-0.233,2.247-0.694l13.443-9.115c0.431-0.292,0.679-0.786,0.657-1.305      C164.129,224.742,163.84,224.271,163.387,224.017z M148.367,233.199c-0.468,0.316-0.897,0.136-1.06,0.044      c-0.163-0.091-0.54-0.365-0.514-0.927l0.658-13.799l12.35,6.929L148.367,233.199z"/>
			</g>
		</g>
		<g>
			<g>
				<path class="st3" d="M233.757,98.599c-0.723-0.406-1.637-0.149-2.043,0.574c-0.405,0.722-0.147,1.637,0.574,2.042      c4.425,2.483,6.005,8.103,3.522,12.527l-29.499,52.574c-0.405,0.722-0.147,1.637,0.574,2.042      c0.232,0.13,0.484,0.192,0.733,0.192c0.524,0,1.034-0.276,1.31-0.767l29.499-52.574      C241.719,109.343,239.624,101.891,233.757,98.599z"/>
			</g>
		</g>
		<g>
			<g>
				<path class="st13" d="M131.265,215.29c-0.05,0.09-0.09,0.18-0.12,0.28c-0.01,0.01-0.01,0.03-0.01,0.04      c-0.03,0.1-0.05,0.2-0.06,0.3v0.04l-0.78,16.22c-0.07,1.53,0.71,2.94,2.05,3.69c0.61,0.35,1.29,0.52,1.96,0.52      c0.78,0,1.57-0.24,2.25-0.7l7.31-4.95l0.71-14.78v-0.04c0.01-0.1,0.03-0.2,0.06-0.3c0-0.01,0-0.03,0.01-0.04      c0.03-0.1,0.07-0.19,0.12-0.28l4.55-8.12h-13.5L131.265,215.29z M169.234,216.67v4.85c0,9.05-7.36,16.42-16.42,16.42h13.5      c9.06,0,16.42-7.37,16.42-16.42v-28.93l-0.93,1.67L169.234,216.67z M169.234,69.5v78.1l-2.79,4.98l-1.09,1.95      c0.01,0.04,0.01,0.09,0.01,0.14c0,0.59-0.34,1.1-0.84,1.34l-15.42,27.48l-11.6,20.68h13.5l11.6-20.68l17.34-30.91l2.79-4.98      V69.5H169.234z"/>
			</g>
		</g>
		<g>
			<g>
				<path class="st14" d="M166.314,41.52h-13.5c9.06,0,16.42,7.37,16.42,16.42v8.56h13.5v-8.56      C182.734,48.89,175.375,41.52,166.314,41.52z"/>
			</g>
		</g>
		<g>
			<g>
				<path class="st11" d="M131.85,30.989h-16.208v-0.268c0-7.782-6.367-14.149-14.149-14.149h-0.786      c-7.782,0-14.149,6.367-14.149,14.149v0.268H69.767c-2.002,0-3.625,1.623-3.625,3.625v11.083c0,2.002,1.623,3.625,3.625,3.625      h62.083c2.002,0,3.625-1.623,3.625-3.625V34.614C135.475,32.612,133.852,30.989,131.85,30.989z M105.811,31.241      c0,2.521-2.063,4.583-4.583,4.583h-0.255c-2.521,0-4.583-2.063-4.583-4.583v-0.255c0-2.521,2.063-4.583,4.583-4.583h0.255      c2.521,0,4.583,2.063,4.583,4.583V31.241z"/>
			</g>
		</g>
		<g>
			<g>
				<path class="st3" d="M101.228,24.903h-0.255c-3.354,0-6.083,2.729-6.083,6.083v0.254c0,3.354,2.729,6.083,6.083,6.083h0.255      c3.354,0,6.083-2.729,6.083-6.083v-0.254C107.311,27.632,104.582,24.903,101.228,24.903z M104.311,31.241      c0,1.7-1.383,3.083-3.083,3.083h-0.255c-1.7,0-3.083-1.383-3.083-3.083v-0.254c0-1.7,1.383-3.083,3.083-3.083h0.255      c1.7,0,3.083,1.383,3.083,3.083V31.241z M131.851,29.489h-14.757c-0.63-8.055-7.387-14.417-15.601-14.417h-0.786      c-8.214,0-14.971,6.361-15.601,14.417h-15.34c-2.826,0-5.125,2.299-5.125,5.125v11.083c0,2.826,2.299,5.125,5.125,5.125h62.084      c2.826,0,5.125-2.299,5.125-5.125V34.614C136.976,31.788,134.677,29.489,131.851,29.489z M133.976,45.697      c0,1.172-0.953,2.125-2.125,2.125H69.767c-1.172,0-2.125-0.953-2.125-2.125V34.614c0-1.172,0.953-2.125,2.125-2.125h16.792      c0.828,0,1.5-0.671,1.5-1.5v-0.268c0-6.975,5.674-12.648,12.648-12.648h0.786c6.975,0,12.648,5.674,12.648,12.648v0.268      c0,0.829,0.672,1.5,1.5,1.5h16.209c1.172,0,2.125,0.953,2.125,2.125V45.697z"/>
			</g>
		</g>
	</g>
</g>
</svg>
