<svg xmlns="http://www.w3.org/2000/svg" width="1594" height="1606">
  <path fill="none" d="M0 290h1c.5-24 11.5-48 25.8-67.2 14.3-19.3 29-31 51.3-42.7 22.3-11.7 51.6-13.9 79.9-13.1 28.3.8 64.2-.4 94 0 29.8.4 63.8-.3 94 0-4.8-30 4-65.8 39-64 35 1.8 71-1.4 106 0 3.5-52.4 48.9-97.3 100-103H0v290Z"/>
  <path fill="none" stroke="#3B322B" stroke-width=".3" d="M1 290c-.8 40.8.5 81.1 0 122-.5 40.9.5 82 0 123s.8 82.1 0 123c-.8 40.9 1.7 82.2 0 123s3.7 82.3 0 123c2.4 4.5 4.6 6.2 10 6 17.7-.6 9.9-27.9 11-42 1.1-14.1-.5-36.8 0-53 .5-16.2-.2-37 0-54s-.1-35.5 0-53V387h494c20.5-.1 41.7.3 62 0 20.3-.3 42 .7 62 0s43 1.6 62 0 43.4 7.5 53-9v-1c1.2-17.7-28.3-10-42-11s-37.1.5-53 0c-15.9-.5-36.1.2-53 0s-35.7.1-53 0c-17.3-.1-35.5 0-53 0H22c1.5-29-4-68.7 5-95a113 113 0 0 1 41.2-58.8c22-17.7 46.5-23.7 76.8-23.2 30.3.5 68.1-.3 100 0 31.9.3 68.7-.2 101 0-1.2 22.2-2.6 56.8 24.7 63.3 27.3 6.6 56.6 1.4 85.3 2.7 28.7 1.3 59.1-.7 88 0s59.2-.6 88 0c28.8.6 59.6-.9 88 0s60.8-1.8 88 0c27.2 1.8 50.3-6.4 53-35 .6-10.6-.4-21.4 0-32 32.4-.3 68 .3 100 0s70.2.6 101 0c30.8-.6 54.4 6.5 77.3 23.8A106.8 106.8 0 0 1 1181 271c8.8 26.7 5.6 65.3 6 95H866c-9.7.1-29-3.3-28 10 0 .8.7 3.2 1 4 1.5 4.6 4.8 6 9 7 27.7 3.4 56-1.5 84 0s56.8-.7 85 0c28.2.7 56.7-.4 85 0 28.3.4 56.7-.3 85 0v262c0 21.8-.2 44.3 0 66 .2 21.7-.4 43.4 0 65s-.9 44.8 0 66c.9 21.3-2 44.5 0 65s-2.3 38-12.8 53.2c-10.4 15.2-14.6 27.9-23.5 42.5-8.9 14.6-15.5 27-23.6 41.4l-23.8 42.2c-8.2 14-15 27.9-23.2 41.8-8.2 13.9-15.8 28.2-23.9 42.1-8 14-15.6 28.5-23.5 42.5s-16 27.3-23.5 41.5c-7.5 14.3-16.3 27.9-24 42-7.7 14.2-15.9 28.5-23.2 42.8-6.2 6.6-21.5.4-31 2s-23.8-.8-34 0-23.4 0-33-1H733c-14.6 0-29.5.2-44 0s-28.5.4-43 0-29.6 1-44 0c-14.4-1-29.8 2-44 0s-21 16.6-7 21c6.6 1.2 13.2-.5 20 0 6.8.5 14.1-.2 21 0s14-.1 21 0h252c6.8.1 14.4-.2 21 0s14.8-.5 21 0c6.2.5 15.8-1.2 21 0 5.3 1.2 17.6-3 20 1 1.7 2.9-6.3 10-7.3 13.8-.9 3.6-5.4 9.4-7.5 13.4-2 4.1-4.8 9.1-7.5 13.5-2.7 4.3-4.3 8.8-7.5 13.5-3.1 4.8-3.4 10.7-4.2 16.8-.8 6 1.3 14.8 0 21-1.3 6.2-.3 13.5-1 20s-.5 13.5-1 20-1.1 13.4-1 20c.1 6.6-1.4 13-2 19-2.6 27.3 25.2 44.6 45.8 30.8 20.5-14 34.2-22 52.4-35.6 18.2-13.5 37.8-20.1 49.1-38.9a931 931 0 0 0 31.7-56.3c30.5-59.6 67-116.6 99-175 .2 28-.3 58.3 0 86 .3 27.8-.5 60.2 0 87 .5 26.8.2 55-9.8 77.2-10 22.2-18.1 35-37.9 49.1a107.7 107.7 0 0 1-64.3 22.7c-25.8.5-60.4-.4-87 0H255c-16.1 0-33.2-.2-49 0-15.8.2-32.7-.3-48 0-15.3.3-32.5.1-46-3a109.4 109.4 0 0 1-34.8-14.3c-11-6.7-17.8-12.8-26.5-22.5a98 98 0 0 1-19-29.9A103.6 103.6 0 0 1 22 1475c-.3-14.7.1-33.4 0-49v-293c-.1-15.6.3-34.2 0-49-.3-14.8.7-36.1 0-49-.7-12.9 5.4-37.5-11-38a11 11 0 0 0-10 7c3.6 39.5-1.6 79.3 0 119s-.6 80.2 0 120-.1 80.3 0 120 .7 80.2-1 119v1c7.3 59.8 60.8 120.7 124 122 159.9 3.2 320.1 0 480 0 159.9 0 320.1 3.2 480 0 25.5-.5 49.3-12.5 69.3-27.8 20-15.2 32.4-29.5 43.5-53.5 11-23.9 12.3-55.3 11.2-84.7-1-29.4 1-67 0-97s1.8-69 0-98 16.5-46.6 28-69c11.3-22.5 22.7-40 34.3-61.7 11.6-21.8 23.7-40.5 35-62 11.3-21.4 24-41.4 35.5-62.5 11.4-21.1 23.2-41.6 35-62 11.7-20.5 22.4-41.7 34.1-61.9 11.8-20.2 22.3-40.2 34.3-60.6 12-20.5 23.2-42.6 35-63 12-20.4 22.7-40.6 34.1-61 11.4-20.4 22.9-38.9 33.7-60.3 10.1 5.4 15 14.8 20 25a70.4 70.4 0 0 1 3.7 39.7c-2.8 11.5-9.9 20.8-15 31s-11.3 18.6-16.5 28.5c-5.1 10-10.8 20-16.1 29.9-5.3 9.9-11.8 19-16.9 29.1-5 10.1-11 19-16.1 28.9a421.7 421.7 0 0 1-16.8 29.1c-6.1 9.5-10 20.6-16 30-6 9.4-10.7 20-16.6 29.5-6 9.6-10.5 19.2-16 29-5.6 9.8-11.5 19-17 29s-10.5 19.9-16.6 29.4c-6.2 9.5-9 19.8-16 29-7.1 9.2-7.7 20.7-16.4 29.6-8.7 8.9-5.8 27.9 8 24 13.7-4 11-17.4 18.6-26.4 7.6-9 10.4-20.2 16.5-29.5 6-9.3 10.8-20.1 17-29 6.1-9 8.8-19.4 15.1-28.9 6.3-9.4 10.9-18.9 16.3-28.6 5.5-9.8 11.2-19.5 16.6-29.5 5.3-10 11.3-19.5 16.5-29.5 5.3-10 11.3-18.5 16.5-28.5 5.2-10 11.1-19.6 16.5-29.5l16.5-29.5 16-29c5.5-10 10.5-18 16.1-27.9 5.6-9.8 10.6-19.6 16.4-29.6A81 81 0 0 0 1593 681c.3-7.6.4-15.5 0-23-.6-11.2-6.1-21.7-10.8-31.3a82.2 82.2 0 0 0-19.3-23.6c-7.6-7.1 4.4-16.8 8.4-25.8s11.3-18.7 13.6-29.4c2.4-10.6 4.7-26.7.8-37.6-4-10.9-6-20-13-29A77.5 77.5 0 0 0 1518 450a80.1 80.1 0 0 0-34.6 3.3 81.8 81.8 0 0 0-45.6 40.4c-4.8 8.8-9.9 18.3-15 27-5 8.8-10.6 18.5-15.3 27-4.7 8.6-9.6 17.8-15.2 26.5-5.6 8.8-9 18.6-14.5 27.5-5.5 8.8-10.3 18.4-15.5 27.5-5.2 9.1-10.8 18.2-15.5 27.5-4.7 9.3-10.8 17.1-15.5 26.5a372 372 0 0 1-15.5 27.5c-5.3 9-9.8 19-15 28-5.2 9-10.5 17.3-15.5 26.5a813 813 0 0 1-15.5 27.5c-5.2 9.1-10 18.5-15.5 27.5s-9.3 18.2-15 27c-5.7 8.8-9.5 19-15.1 27.9-5.7 8.8-10.3 18.5-16.1 26.9V509c.1-32.2-.3-66.4 0-98 .3-31.6-.6-68.7 0-99 .6-30.3-5.1-54.6-19.8-78.3a127.3 127.3 0 0 0-49.4-48.5c-23.6-14.4-50.6-19-80.8-18.2-30.2.8-66.5-.4-98 0s-67.1-.3-99 0c-1.5-9.9 2-24.6 0-34a37 37 0 0 0-11.3-20.8c-6.5-7-14.8-8.9-24.7-9.2-9.9-.3-23.6.5-34 0-10.4-.5-23.8.9-34 0s-24.8 2-34 0-3.2-19.3-8-26c-4.8-6.7-5.8-16.6-10.8-23.2-5-6.7-9.1-13.2-15.3-18.7-6.1-5.6-10.4-12.4-17.8-16.2-7.4-3.8-14-8.8-22.3-11.7-8.4-2.9-19.5-5.8-28.8-6.2-9.2-.2-19.6 1-28-1h-1c-51.1 5.7-96.5 50.6-100 103-35-1.4-71 1.8-106 0s-43.8 34-39 64c-30.2-.3-64.2.4-94 0-29.8-.4-65.7.8-94 0-28.3-.8-57.6 1.4-80 13a137.6 137.6 0 0 0-51.2 42.8C12.5 242 1.5 266 1 290m838-152c2.5 12.3.9 26.8 1 40 .1 13.2 1.2 28.7-1 41-1.4 19.8-25.1 13.4-41 14-15.9.6-38.6-.3-56 0s-38-.1-56 0H575c-18.3.1-37.7-.2-56 0-18.3.2-38-.4-56 0s-38.8-.9-56 0c-17.2.9-38.5 2.8-39-17s1.2-36.8 0-55c-1.2-18.2-1.6-37.3 19-37 20.6.3 36.1-.3 56 0s36-.5 56 0 12.3-24.8 17.3-37.7c5-12.8 10.5-25.2 20.5-35.5 10-10.4 20-17.5 33.3-22.7 13.3-5.3 34.7-8.3 49.6-5.8a90.2 90.2 0 0 1 66.6 44.4A86.4 86.4 0 0 1 698 111c.8 17.9 27.6 12.9 43 13 15.4.1 40-.4 56 0s38-5.2 42 14m701 451c-32.9-18.5-65.6-37.7-99-55 12.8-23.3 21.6-51 50-60a57 57 0 0 1 71 34c10.7 29.2-7.3 56.5-22 81m-11 18c-37 69.5-77.8 137.6-115 207-34-16.3-66.6-36.8-100-55 38.5-69.1 77.6-137.8 116-207 33.3 17.9 65.7 37.1 99 55m-127 226c-76.9 141-158 280.1-235 421-11-4.6-19.5-11.2-30.2-16.8-10.8-5.5-20-11.2-31-17-11.1-5.7-17.6-11.5-30-17-12.5-5.5-1.1-18 4.5-28 5.5-9.9 11.3-20.9 17-30.9 5.7-10 11.4-19.8 17-30 5.6-10.1 11.6-20.5 17.5-30.5 5.8-10.1 11.2-21 17-31l17-30 17.1-30.9c5.6-10.3 11.8-20.4 17.4-30.6 5.6-10.2 11.1-20 17-30 5.8-10.1 11.3-20.8 17-31 5.8-10.2 12-20.2 17.5-30.5 5.4-10.4 11.4-19.8 17-30l17.1-30.9c5.7-10.3 11.7-20.5 17.1-30.9 33.4 17.7 65.8 37 99 55m-247 439c-36.1 70.1-78 138.1-115 208-9.3-3.8-17.1-10.3-26.3-14.8-9-4.5-18-10-27-15-8.9-5-17.9-10.2-27-15-9-4.7-22.4-9.3-14.8-19.3 7.6-10 9.1-17.4 15-27 6-9.5 10-17.3 15.4-26.7 5.3-9.3 9.7-17.8 15-26.9 5.3-9.1 9.9-17.8 15-27 5.2-9.2 10.4-17.2 15-27s11-16 15.5-26.5c4.4-10.5 10.6-15.1 15-27 4.4-12 14-7.5 23.3-.9s17.9 9.3 27 15c9 5.8 17.7 10 27 15 9.2 5 17.3 11 26.9 15.1m-133 224c-9 6.5-20.8 14.3-29.7 20.3-8.9 6-22.4 15.5-30.5 20.5-8.1 4.9-27 23.4-30.8 8.2-3.7-15.2 3.8-33.2 2-49-1.8-15.8 4.3-32.8 2-49 29.2 15.2 59.1 31.5 87 49Z"/>
  <path fill="none" stroke="#382D2C" stroke-opacity=".1" stroke-width=".3" d="M620 1V0h-28c8.4 2 18.8.8 28 1Z"/>
  <path fill="none" d="M620 1c9.3.4 20.4 3.3 28.8 6.2 8.3 3 15 7.9 22.3 11.7 7.4 3.8 11.6 10.6 17.8 16.2 6.2 5.5 10.4 12 15.3 18.7 5 6.6 6 16.5 10.8 23.2 4.8 6.7-1.2 24 8 26s23.8-.9 34 0 23.6-.5 34 0c10.4.5 24.1-.3 34 0 9.9.3 18.2 2.3 24.8 9.3A37 37 0 0 1 861 133c2 9.4-1.5 24.1 0 34 31.9-.3 67.5.4 99 0s67.8.8 98 0c30.2-.8 57.2 3.8 80.8 18.2a127.3 127.3 0 0 1 49.5 48.6c14.6 23.6 20.3 48 19.7 78.2-.6 30.3.3 67.4 0 99-.3 31.6.1 65.8 0 98v393c5.8-8.4 10.4-18 16-27 5.7-8.8 9.5-19 15.2-27.8 5.7-8.8 9.5-18 15-27s10.3-18.4 15.5-27.5a813 813 0 0 0 15.5-27.5c5-9.2 10.3-17.5 15.5-26.5 5.2-9 9.7-19 15-28 5.4-9 10.8-18 15.5-27.5 4.7-9.4 10.8-17.2 15.5-26.5 4.7-9.3 10.3-18.4 15.5-27.5 5.2-9 10-18.7 15.5-27.5 5.4-8.9 9-18.7 14.5-27.5 5.6-8.7 10.5-18 15.2-26.5 4.7-8.5 10.3-18.2 15.3-27 5.1-8.7 10.2-18.2 15-27a81.8 81.8 0 0 1 45.6-40.4 80.8 80.8 0 0 1 34.7-3.3 77.5 77.5 0 0 1 54.8 31.3c6.9 9 9 18.1 12.9 29 3.9 11 1.6 27-.8 37.6-2.3 10.7-9.6 20.4-13.6 29.4s-16 18.7-8.4 25.8a80 80 0 0 1 19.3 23.6c4.7 9.6 10.2 20.1 10.8 31.3h1V0h-279c8.7 8.1 8.8 18.6 15 29a110 110 0 0 0 19 25c8.8 9.3 19.4 9.2 32 13 12.6 3.8 5.2 22.4-6.2 23.8-11.5 1.3-18.7 10.9-28 16-9.3 5-15 16-21.1 23.9-6.1 7.9-.6 28.3-14.7 29.3s-12.2-17-16.8-25.2c-4.6-8.3-8.3-22.4-16.5-28.6-8.1-6.1-15.3-18-27.7-16.2-12.5 1.9-22.4-16.3-9.8-21.8 12.6-5.4 22.2-5 32.5-12.5a65.2 65.2 0 0 0 20.6-23.4c6.3-10.5 3-24 12.7-32.3H620v1m848 68c10.5 2 9.7 19.7 14.8 27.2 5 7.6 9 20.5 15.5 27.5 6.5 7.1 12 17.8 20.4 22.6 8.4 4.8 17.2 15.1 27.4 14.6 10.1-.5 29.4 6.4 23 18.1-6.6 11.8-19.6 7.9-27.8 15.3-8.3 7.3-18.3 9-26 16-7.8 7-16 12.5-22 21-6.1 8.4-13.9 17-16 27-2.3 9.9-.9 29.7-15 27.4-14-2.3-9.4-18.4-14.3-27.7s-8-20.2-13.8-29.2c-5.7-9-11.3-16.2-19-24-7.6-8-15.7-10.3-24.9-15.1-9.2-4.8-28 .1-29.3-13.7-1.3-13.8 17.6-13 26.7-16.3a131 131 0 0 0 27.5-14.5 95.6 95.6 0 0 0 22-21A90.7 90.7 0 0 0 1451 95c2.8-10.2 1-29.2 17-26m-153 121c9 2.5 8.4 19.8 14.3 26.8 5.8 6.8 9 18.5 17.5 24.4 8.4 6 16 15.7 27.9 14.1 11.9-1.6 18.3 16.8 7.5 22-10.7 5.1-19.3 6.7-28.4 13.5-9.1 6.7-15 11-22 20-7.2 9-9.6 18.4-11.6 30.4s-21.4 8.7-22-3.4c-.6-12.1-7.2-19.6-12-30-4.8-10.4-11.6-13.9-20-22-8.3-8.2-22.6-1.7-30.1-11.9-7.6-10.2 7.2-19 17.1-19.7 10-.7 19.4-9.4 26.6-15.4 7.1-6 14.7-15.2 17.2-24.8 2.4-9.7 1.4-28.6 18-24Z"/>
  <path fill="none" stroke="#3A312A" stroke-width=".3" d="M1315 0h-9c-9.7 8.2-6.5 21.8-12.7 32.3a65.2 65.2 0 0 1-20.6 23.4c-10.3 7.5-19.9 7-32.5 12.5-12.6 5.5-2.7 23.7 9.8 21.8 12.5-1.8 19.6 10 27.8 16.3 8.1 6.1 11.8 20.2 16.4 28.5 4.6 8.3 2.7 26.1 16.8 25.2 14-1 8.6-21.4 14.7-29.3 6-7.9 11.8-18.9 21-24 9.4-5 16.6-14.6 28-16 11.5-1.3 19-19.9 6.3-23.7-12.6-3.8-23.2-3.7-32-13a110 110 0 0 1-19-25c-6.2-10.4-6.3-20.9-15-29m32 80c-13.7 9.2-28.7 20-37 35-8-13-16.9-28.3-31-36 10.9-10.1 26.3-20.2 33-35 10 13 20.3 27.8 35 36Z"/>
  <path fill="none" stroke="#89C5DC" stroke-width=".3" d="M839 219c.9-13.3.1-26.6 0-40-.1-13.4 1.2-27.7 0-41-4-19.2-26-13.6-42-14-16-.4-40.6.1-56 0-15.4-.1-42.3 4.9-43-13a86.4 86.4 0 0 0-11.7-44.3 90.2 90.2 0 0 0-66.6-44.4c-15-2.5-36.3.5-49.6 5.8a90.6 90.6 0 0 0-33.4 22.6 102.2 102.2 0 0 0-20.4 35.6c-5 12.9 2.6 38.2-17.3 37.7-20-.5-36.1.3-56 0s-35.4.3-56 0-20.2 18.8-19 37c1.2 18.2-.5 35.2 0 55 .5 19.8 21.8 17.9 39 17 17.2-.9 38 .4 56 0s37.7.2 56 0c18.3-.2 37.7.1 56 0h111c18-.1 38.6.3 56 0s40.1.6 56 0c15.9-.6 39.6 5.8 41-14M611 70c32.5 4.6 50.3 43.8 30.8 70.8a45 45 0 0 1-76.1-6.5C550.7 104.8 576 65 611 70Z"/>
  <path fill="none" stroke="#D3DC56" stroke-width=".3" d="M1347 80c-14.7-8.2-25-23-35-36-6.7 14.8-22.1 24.9-33 35 14.1 7.7 23 23 31 36 8.3-15 23.3-25.8 37-35Z"/>
  <path fill="none" stroke="#3A312A" stroke-width=".3" d="M1468 69c-16-3.2-14.2 15.8-17 26a90.7 90.7 0 0 1-13.8 29.3 95.6 95.6 0 0 1-22 21 131 131 0 0 1-27.5 14.4c-9 3.4-28 2.5-26.7 16.3 1.3 13.8 20.1 9 29.3 13.7 9.2 4.8 17.3 7.2 25 15 7.6 8 13.2 15 19 24 5.7 9.1 8.8 20 13.7 29.3 4.9 9.3.2 25.4 14.3 27.7 14.1 2.3 12.8-17.5 15-27.5 2.1-10 9.9-18.5 16-27 6-8.4 14.2-14 22-21 7.7-7 17.7-8.6 26-16 8.2-7.3 21.2-3.4 27.7-15.2 6.5-11.7-12.8-18.6-23-18-10 .4-18.9-9.9-27.3-14.7-8.4-4.8-14-15.5-20.5-22.6-6.5-7-10.3-20-15.4-27.5S1478.5 71 1468 69m57 108a189.2 189.2 0 0 0-63 59c-8.6-25.9-29.4-48-52-63a111.3 111.3 0 0 0 57-57c13.7 24 32.8 48 58 61Z"/>
  <path fill="none" stroke="#3A322B" stroke-width=".3" d="M611 70c-35-5-60.3 34.8-45.3 64.3a45 45 0 0 0 76 6.4c19.6-27 1.8-66-30.7-70.7m0 66c-5 2.2-6.8 1.8-11 0-15.1-2.2-20.7-22.7-12.7-33.7 8-11 25.2-15.1 36-1.5 10.7 13.5 1 29.3-12.3 35.2Z"/>
  <path fill="none" d="M600 136c3.2.4 7.8.5 11 0 13.3-5.9 23-21.7 12.3-35.3-10.8-13.5-28-9.4-36 1.6s-2.4 31.5 12.7 33.7Z"/>
  <path fill="none" stroke="#D4DD56" stroke-width=".3" d="M1525 177c-25.2-13-44.3-37-58-61a111.3 111.3 0 0 1-57 57c22.6 15 43.4 37.1 52 63a189.2 189.2 0 0 1 63-59Z"/>
  <path fill="none" stroke="#392F2A" stroke-opacity=".5" stroke-width=".3" d="M611 136a45 45 0 0 1-11 0c4.2 1.8 6 2.2 11 0Z"/>
  <path fill="none" stroke="#5A6E74" stroke-width=".3" d="M839 219c2.2-12.3 1.1-27.8 1-41-.1-13.2 1.5-27.7-1-40 1.2 13.3-.1 27.6 0 41 .1 13.4.9 26.7 0 40Z"/>
  <path fill="none" stroke="#6A5A50" stroke-width=".3" d="M861 220c1.5-9.6 1-20.7 1-31 31.2-.7 70.6 1 101 0 30.4-1 56.6 4.4 79.2 21.8a113 113 0 0 1 42.6 58.4c9.7 26.6 3.4 67.4 5.2 96.8h97c-.4-29.7 2.8-68.3-6-95a107 107 0 0 0-41.8-59.3A115.9 115.9 0 0 0 1062 188c-30.8.6-69-.3-101 0s-67.6-.3-100 0c-.4 10.6.6 21.4 0 32Z"/>
  <path fill="none" stroke="#86786E" stroke-width=".3" d="M755 377c4.5-3.7 14.2-.3 20-1 5.8-.8 15-.2 21 0s15.4-1.3 21 0 16.6-3.2 21 0c-1-13.3 18.3-9.9 28-10h224c-1.8-29.4 4.5-70.2-5.2-96.8a112.8 112.8 0 0 0-42.6-58.4c-22.6-17.4-48.8-22.8-79.2-21.8-30.4 1-69.8-.7-101 0 0 10.3.5 21.4-1 31-2.8 28.6-25.8 36.8-53 35-27.2-1.8-59.6.9-88 0s-59.2.6-88 0c-28.8-.6-59.1.7-88 0s-59.3 1.3-88 0c-28.7-1.3-58 3.9-85.3-2.7-27.3-6.5-26-41.1-24.7-63.3-32.3-.2-69.1.3-101 0-31.9-.3-69.7.5-100 0-30.3-.5-54.7 5.5-76.8 23.2A113 113 0 0 0 27 271c-9 26.3-3.5 66-5 95h479c17.5 0 35.7-.1 53 0 17.3.1 36.1-.2 53 0s37.1-.5 53 0c15.9.5 39.3-1 53 0 13.7 1 43.2-6.7 42 11Z"/>
  <path fill="none" stroke="#3A312A" stroke-width=".3" d="M1315 190c-16.6-4.6-15.6 14.3-18 24a52.4 52.4 0 0 1-17.2 24.8c-7.2 6-16.6 14.7-26.6 15.4-9.9.7-24.7 9.5-17.1 19.7 7.5 10.2 21.8 3.7 30.2 11.9 8.3 8.1 15.1 11.6 20 22 4.8 10.4 11.3 17.9 12 30 .5 12 20 15.5 22 3.4 2-12 4.3-21.4 11.5-30.4 7-9 12.9-13.3 22-20 9-6.8 17.7-8.4 28.5-13.6 10.7-5.1 4.3-23.5-7.6-21.9-12 1.6-19.5-8-28-14-8.4-6-11.6-17.7-17.5-24.6-5.8-6.9-5.3-24.2-14.2-26.7m-2 43a94.2 94.2 0 0 0 34 36c-13.2 9.5-28.1 20.5-37 35-8.3-13.6-18.3-28-32-37a95.7 95.7 0 0 0 35-34Z"/>
  <path fill="none" stroke="#D3DB55" stroke-width=".3" d="M1313 233a95.7 95.7 0 0 1-35 34c13.7 9 23.8 23.4 32 37 8.9-14.5 23.8-25.5 37-35a94.2 94.2 0 0 1-34-36Z"/>
  <path fill="none" stroke="#3A3224" stroke-opacity=".1" stroke-width=".3" d="M0 904h1c3.7-40.7-1.7-82.2 0-123s-.8-82.1 0-123c.8-40.9-.5-82 0-123s-.5-82.1 0-123c.5-40.9-.8-81.2 0-122H0v614Z"/>
  <path fill="none" stroke="#A19284" stroke-width=".3" d="M755 377v1c11.4-5.8 28.2 1.3 41-1s28.9 1.7 42 0c.1 1-.5 2.7 1 3-.3-.8-1-3.2-1-4-4.4-3.2-15.4 1.3-21 0s-15 .2-21 0-15.2-.8-21 0c-5.8.8-15.5-2.7-20 1Z"/>
  <path fill="none" stroke="#FBE7CA" stroke-width=".3" d="M755 378c-9.6 16.5-34 7.4-53 9-19 1.6-42-.7-62 0s-41.7-.3-62 0c-20.3.3-41.5-.1-62 0H22v321c-.1 17.5.2 36 0 53s.5 37.8 0 54c-.5 16.2 1.1 38.9 0 53-1.1 14.1 6.7 41.4-11 42 .3 7-.4 14 0 21s-.7 15.1 0 22-1.4 15.5 0 22-3.1 16.5 0 22c16.4.5 10.3 25.1 11 38 .7 12.9-.3 34.2 0 49 .3 14.8-.1 33.4 0 49v293c.1 15.6-.3 34.3 0 49 .3 14.7 4.5 27 9.7 39.3a98 98 0 0 0 19 30c8.7 9.7 15.5 15.7 26.5 22.5 11 6.7 21.3 11.1 34.8 14.2 13.5 3.1 30.7 3.3 46 3 15.3-.3 32.2.2 48 0 15.8-.2 32.9 0 49 0h733c11.5-1.4 18-4 29.7-8.3a123 123 0 0 0 35.5-23.5c9.3-8.7 11.6-11.9 18.1-20.9 6.5-9 8.7-16 13-26 4.4-10 4.6-22.1 5.7-33.3 1.1-11.2-2-26.7-1.3-35.2a1501 1501 0 0 1-32.4 56.5c-11.3 18.8-30.9 25.4-49 39-18.3 13.4-32 21.5-52.5 35.5-20.6 13.8-48.4-3.5-45.8-30.8-.2-1 .2-2 0-3-14 12-32 17.8-45.7 30.3-13.6 12.5-44 12-48.6-10-4.5-22 .8-49 1.3-71.3.5-22.3-.1-48.6 8.8-67.3 8.8-18.6 18.6-31.5 27.2-49.7h-60c-20-.1-40 .4-60 0s-41.2.8-61 0c-19.8-.8-40.5 2-60 0s-42 4.7-60-1c-14-4.4-7.2-23 7-21s29.6-1 44 0c14.4 1 29.5-.4 44 0s28.5-.2 43 0 29.4 0 44 0h132c6.5-11.4 12.4-22.7 19-34 6.5-11.4 12.2-22.8 19-34 6.6-11.3 12.4-22.7 19-34 6.5-11.5 12.6-23.4 19.3-34.7 6.7-11.3 12.6-22.6 19-34 6.4-11.4 12.8-22.6 19-34 6.3-11.3 13.7-23 19.6-34.4 6-11.3 13-22.7 19.4-33.7 6.4-11 11.5-23.8 19-33.9 7.5-10.1 10.7-26 17.7-34.3-15 3.7-32.4-1.7-48 0-15.6 1.7-32.2-.8-48 0-15.8.8-32-.4-48 0s-32-.2-48 0-32-.1-48 0h-48c-16 .1-32.2-.2-48 0-15.8.2-33.5-.4-49 0s-33.3-1-48 0c-14.7 1-34.9-2-48 0-13.1 2-37-.6-29.2-15.2 7.7-14.6 28.3-3 42.2-5.8 14-2.8 33 1.3 48 0s32.3.5 48 0c15.7-.5 33.1.2 49 0 15.9-.2 32.1 0 48 0h96c15.7.1 32.6-.4 48 0 15.4.4 33.4-.8 48 0 14.6.8 35-1.8 48 0s37.4-7 42 7c1.1-3.2 8.6-8.7 10.8-15.2 2.1-6.5 7-11.8 10.5-18.5 3.4-6.7 7.8-13.4 6.7-22.3-1.1-8.9.5-18.8 0-28-.5-9.3.2-19.6 0-29-.2-9.4.1-19.5 0-29V388c-80.5-.7-162.3 1.3-242-1-4.2-1-7.5-2.4-9-7-1.5-.3-.9-2-1-3-13.1 1.7-29.2-2.3-42 0s-29.6-4.8-41 1M404 488a63 63 0 0 1 48 33c11.2 19.5 8 49 8 73v81c0 24 3.3 51.1-11.3 69.7-14.6 18.5-29.6 27.5-53.7 27.3-24.1-.2-56.3 1-81 0-24.7-1-58.4 2.3-82 0s-35.7-14-48-33c-12.2-19.1-7.5-49.3-8-73-.5-23.7 0-57.2 0-81 0-23.8-3.4-51.3 11.3-69.7 14.7-18.4 29.3-27.6 53.7-27.3 24.4.3 55.4-1.5 81 0s56.4-3.7 82 0m651 132c14 4.4 7.3 23-7 21s-29.4.9-44 0c-14.6-.9-30.3.4-45 0s-29.2.2-44 0-30.2 0-45 0H737c-14.8.1-30.2-.2-45 0s-29.3-.5-44 0-30.4-1.1-45 0c-14.6 1.1-29.7-2.5-44 0s-22.7-16.4-8-21c18.8-6 41.7 1 62-1 20.3-2 42.3.9 63 0 20.7-.9 42 .3 63 0s43 0 64 0 42.1-.3 63 0 42.3-.9 63 0c20.7.9 42.6-2 63 0s44.2-5 63 1m-654 514c-26.1 3.7-56 1-83 1s-57 2.7-83-1a60.8 60.8 0 0 1-52.8-35.2c-10.7-21.7-5-55.8-6.2-81.8-1.2-26 1.3-61.7 0-88-1.3-26.3 3-47.1 23.8-64.3 20.7-17 46.2-14.8 73.2-14.7h89c27 0 52.8-2.7 73.8 14.3 20.9 16.9 25.4 37.4 24.2 63.7-1.2 26.3 1.1 61.9 0 88-1.1 26.2 4.2 60-6 82a60 60 0 0 1-53 36m4 79a61.6 61.6 0 0 1 49.3 37.7c9.7 21.6 4.6 55.3 5.7 81.3 1 26-1.3 61.7 0 88 1.3 26.3-3.7 46-24.2 62.8-20.6 16.8-46 14.5-72.8 14.2-26.8-.3-61.3 0-88 0-26.7 0-53 3.2-73.8-13.3-20.7-16.4-26.6-36.5-25.2-62.7 1.4-26.2-1.8-61.1 0-87s-5.3-60 5-82c10.1-22.1 24.8-35.9 49.7-38.3 24.9-2.5 59.4-1.4 86.3-.7 27 .7 60.8-3.3 88 0Z"/>
  <path fill="none" stroke="#CBAD8A" stroke-width=".3" d="M1062 989c2.6 7.9-3 9.3-7 14-7 8.3-10.2 24.2-17.7 34.3-7.5 10.1-12.6 23-19 34-6.5 11-13.5 22.3-19.4 33.6-6 11.3-13.3 23-19.6 34.4-6.2 11.4-12.6 22.6-19 34-6.4 11.4-12.3 22.8-19 34-6.7 11.3-12.8 23.3-19.4 34.6-6.5 11.4-12.3 22.8-19 34-6.7 11.3-12.4 22.7-19 34-6.5 11.4-12.4 22.7-18.9 34.1 8 0 16.1.2 24 0 7.9-.2 17.3.6 25 0 7.7-.6 16.8 1.3 24 0 7.2-1.3 18.3 3.4 24-1 7.3-14.3 15.5-28.6 23.3-42.8 7.7-14.1 16.4-27.7 24-42 7.4-14.2 15.5-27.5 23.4-41.5 7.9-14 15.5-28.5 23.5-42.5s15.7-28.2 23.9-42.1c8.2-14 15-27.8 23.2-41.8 8.1-14.1 15.7-27.8 23.8-42.2 8-14.4 14.7-26.8 23.6-41.4 8.9-14.6 13-27.3 23.5-42.5A77.4 77.4 0 0 0 1187 911c-2-20.5.9-43.8 0-65-.9-21.3.4-44.4 0-66s.2-43.3 0-65c-.2-21.7 0-44.2 0-66V387c-28.3-.3-56.7.4-85 0-28.3-.4-56.8.7-85 0-28.2-.7-57 1.5-85 0s-56.3 3.4-84 0c79.7 2.3 161.5.3 242 1v459c.1 9.5-.2 19.6 0 29 .2 9.4-.5 19.8 0 29 .5 9.3-1.1 19.1 0 28 1.1 8.9-3.3 15.6-6.7 22.3-3.4 6.7-8.4 12-10.5 18.5-2.2 6.5-9.7 12-10.8 15.2Z"/>
  <path fill="none" stroke="#D5DE56" stroke-width=".3" d="M1540 589c14.7-24.5 32.7-51.8 22-81a56.9 56.9 0 0 0-71-34c-28.4 9-37.2 36.7-50 60 33.4 17.3 66.1 36.5 99 55Z"/>
  <path fill="none" stroke="#3A312A" stroke-width=".3" d="M404 488c-25.6-3.7-56.4 1.5-82 0s-56.6.3-81 0-39 8.9-53.7 27.3c-14.7 18.4-11.4 45.9-11.3 69.7 0 23.8-.5 57.3 0 81 .5 23.7-4.2 53.9 8 73 12.3 19 24.4 30.7 48 33 23.6 2.3 57.3-1 82 0 24.7 1 56.9-.2 81 0s39-8.8 53.7-27.3c14.6-18.6 11.2-45.7 11.3-69.7v-81c0-24 3.2-53.5-8-73a63 63 0 0 0-48-33m-4 21a44.5 44.5 0 0 1 39 49c-2 25.7 2.4 61.2 0 88-2.4 26.8 6.7 58.1-5.3 82.7-12 24.5-40.6 23-65.7 22.3-25.1-.7-62.5.8-88 0s-55.2 6-72.8-15.3C189.8 714.6 199 684 197 658s1.6-63.2 0-88c-1.6-24.8 3.6-51.7 29.7-58.3 26.1-6.6 57.4-3 85.3-2.7 27.9.3 60.1-3.4 88 0Z"/>
  <path fill="none" stroke="#D6DF56" stroke-width=".3" d="M400 509c-27.9-3.4-60.1.3-88 0s-59.2-4-85.3 2.7c-26.1 6.6-31.3 33.5-29.7 58.3 1.6 24.8-2 62 0 88s-7.3 56.6 10.3 77.8c17.5 21.1 47.2 14.4 72.7 15.2 25.5.8 62.9-.7 88 0s53.6 2.2 65.7-22.3c12-24.6 2.9-56 5.3-82.7 2.4-26.8-2-62.3 0-88a44.5 44.5 0 0 0-39-49M287 693c-11.5-7-22.4-21.5-31.8-31.3-9.3-9.7-24.8-20-31.2-31.7-8.5-15.5 12.7-20.8 20.3-10.3 7.5 10.6 16.7 15.1 24.4 24.5 7.8 9.5 17 15.3 24.3 24.8 8-7.2 14.7-16 22.3-23.8 7.5-7.7 13.6-17 21.4-24.5 7.9-7.4 13.8-17.2 21.6-24.5 7.7-7.2 13.5-18 21.4-24.5 8-6.4 14-23.6 27-18.4 13 5.2 1.5 21-6 27.5-7.4 6.5-14.2 17-21.4 24.5-7.3 7.4-15 16.1-22 24-7.1 7.8-14.2 16.7-21.6 24.5-7.3 7.7-14.1 16.8-21.4 24.5-7.4 7.6-15.2 22-27.3 14.7Z"/>
  <path fill="none" stroke="#F06B79" stroke-width=".3" d="M1529 607c-33.3-17.9-65.7-37.1-99-55-38.4 69.2-77.5 137.9-116 207 33.4 18.2 66 38.7 100 55 37.2-69.4 78-137.5 115-207Z"/>
  <path fill="none" stroke="#3B322A" stroke-width=".3" d="M224 630c5 7.8 15 13.5 21.3 20.8 6.1 7.2 13.9 14.6 21 21 7 6.4 13.2 15.8 20.7 21.2 12 7.4 20-7.1 27.3-14.8 7.3-7.6 14-16.7 21.4-24.5 7.4-7.7 14.5-16.6 21.6-24.5 7-7.8 14.7-16.6 22-24 7.2-7.4 14-18 21.4-24.5 7.5-6.5 19-22.2 6-27.4-13-5.2-19 12-27 18.5-8 6.4-13.7 17.2-21.4 24.5-7.8 7.2-13.7 17-21.6 24.5-7.8 7.4-14 16.7-21.4 24.5-7.6 7.7-14.3 16.5-22.3 23.7-7.3-9.5-16.5-15.3-24.3-24.8-7.7-9.4-17-14-24.4-24.5-7.6-10.5-28.8-5.2-20.3 10.3Z"/>
  <path fill="none" stroke="#807364" stroke-width=".3" d="M551 620c20.3-3.6 42.3 1.6 63 0 20.7-1.6 42.1.7 63 0s42 .3 63 0 42 0 63 0 42-.3 63 0 42.1-.7 63 0 42.3-1.6 63 0c20.7 1.6 42.7-3.6 63 0-18.8-6-42.6 1-63-1s-42.3.9-63 0c-20.7-.9-42.1.3-63 0s-42 0-63 0-43-.3-64 0-42.3-.9-63 0c-20.7.9-42.7-2-63 0-20.3 2-43.2-5-62 1Z"/>
  <path fill="none" stroke="#3C332B" stroke-width=".3" d="M1055 620c-20.3-3.6-42.3 1.6-63 0-20.7-1.6-42.1.7-63 0s-42 .3-63 0-42 0-63 0-42-.3-63 0-42.1-.7-63 0-42.3-1.6-63 0c-20.7 1.6-42.7-3.6-63 0-14.7 4.6-6.3 23.5 8 21s29.4 1.1 44 0c14.6-1.1 30.3.5 45 0s29.2.2 44 0 30.2.1 45 0h133c14.8 0 30.2-.2 45 0s29.3-.4 44 0 30.4-.9 45 0c14.6.9 29.7-2 44 0s21-16.6 7-21Z"/>
  <path fill="none" d="M1084 1605v1h510V681h-1a81 81 0 0 1-11.7 34.3c-5.8 10-10.8 19.8-16.4 29.6-5.6 9.8-10.6 17.9-16.1 27.9l-16 29-16.5 29.5c-5.4 9.9-11.3 19.5-16.5 29.5-5.2 10-11.3 18.6-16.5 28.5-5.2 10-11.2 19.4-16.5 29.5-5.4 10-11 19.7-16.5 29.5-5.5 9.7-10 19.2-16.4 28.6-6.3 9.5-9 20-15.1 28.9-6.2 8.9-11 19.7-17 29-6.1 9.3-8.9 20.5-16.5 29.5s-4.9 22.5-18.6 26.4c-13.8 3.9-16.7-15.1-8-24s9.3-20.4 16.4-29.6c7-9.2 9.8-19.5 16-29 6.1-9.5 11-19.5 16.6-29.4 5.5-10 11.4-19.3 17-29 5.5-9.8 10-19.4 16-29 6-9.6 10.5-20.1 16.5-29.5 6-9.4 10-20.5 16-30 6.1-9.5 11.7-19.2 16.9-29.1 5.2-10 11-18.8 16.1-28.9 5.1-10 11.6-19.2 16.9-29.1 5.3-10 11-19.9 16.2-29.9 5.1-10 11.3-18.3 16.4-28.5 5.1-10.2 12.2-19.5 15-31a69.1 69.1 0 0 0-3.8-39.6c-5-10.3-9.8-19.7-19.9-25.1-10.8 21.4-22.3 40-33.7 60.3-11.4 20.4-22.2 40.6-34 61-12 20.4-23 42.5-35 63-12 20.4-22.6 40.4-34.4 60.6-11.8 20.2-22.4 41.4-34.2 61.9-11.7 20.4-23.5 40.9-35 62-11.4 21-24.1 41-35.4 62.5-11.3 21.5-23.4 40.2-35 62-11.6 21.8-23 39.2-34.4 61.6-11.4 22.5-29.7 40-27.9 69.1 1.8 29-1 68 0 98s-1 67.6 0 97c1 29.4-.2 60.8-11.3 84.8a130 130 0 0 1-43.5 53.5c-20 15.2-43.7 27.2-69.2 27.7Z"/>
  <path fill="none" stroke="#82813E" stroke-width=".3" d="M287 693c-7.5-5.4-13.7-14.9-20.8-21.3-7-6.3-14.8-13.7-21-21-6.1-7.2-16.2-13-21.2-20.7 6.4 11.8 21.8 22 31.3 31.8 9.3 9.7 20.2 24.1 31.7 31.2Z"/>
  <path fill="none" stroke="#392E29" stroke-opacity=".1" stroke-width=".3" d="M1593 681h1v-23h-1c.4 7.5.3 15.4 0 23Z"/>
  <path fill="none" stroke="#89C5DC" stroke-width=".3" d="M1402 833c-33.3-18-65.6-37.3-99-55-5.4 10.4-11.4 20.6-17 31-5.8 10.2-11.6 20.5-17.2 30.8s-11.6 19.6-17 30c-5.5 10.3-11.8 20.3-17.5 30.5-5.7 10.2-11.2 20.9-17 31-5.9 10-11.4 19.8-17 30-5.5 10.2-11.8 20.4-17.4 30.6l-17.1 30.9-17 30c-5.8 10-11.2 20.9-17 31-5.9 10-11.9 20.4-17.5 30.5-5.6 10.2-11.3 20-17 30-5.7 10-11.5 21-17 31-5.6 9.9-17 22.4-4.5 28 12.4 5.4 18.9 11.2 30 17 11 5.7 20.2 11.4 31 17 10.7 5.5 19.3 12 30.2 16.7 77-140.9 158.1-280 235-421Z"/>
  <path fill="none" stroke="#3B322A" stroke-width=".3" d="M235 1134c27.6 1 55.4 0 83 0s55.4 1 83 0a60 60 0 0 0 53-36c10.2-22 4.9-55.8 6-82 1.1-26.1-1.2-61.7 0-88 1.2-26.3-3.3-46.8-24.3-63.8C414.9 847.4 389 850 362 850h-89c-27-.1-52.5-2.4-73.3 14.8-20.7 17-25 38-23.7 64.2 1.3 26.3-1.2 62 0 88s-4.5 60.1 6.2 81.8A60.8 60.8 0 0 0 235 1134m169-262a41.6 41.6 0 0 1 34 35c2.4 18.4.5 47.4 1 68s-.3 48 0 69 2.6 41-12.8 56.3c-15.3 15.3-35 13.3-56.2 12.7-21.1-.6-48 1-69 0s-48.8 2.3-68.2-.8c-19.4-3-31.4-15-34.8-34.2-3.4-19.3-.1-47-1-68s.5-48 0-69-2.5-40.9 12.8-56.3c15.2-15.3 34.7-13.6 56.2-12.7 21.5.9 47-1.7 69 0s47.1-3.6 69 0Z"/>
  <path fill="none" stroke="#D6DF57" stroke-width=".3" d="M404 872c-21.9-3.6-47 1.7-69 0s-47.5.9-69 0-41-2.6-56.3 12.8C194.6 900 196.6 919.9 197 941c.5 21-.9 48 0 69s-2.4 48.7 1 68a39.2 39.2 0 0 0 34.8 34.2c19.4 3 47.1-.1 68.2.8 21 1 47.9-.6 69 0s41 2.6 56.3-12.8c15.3-15.3 13-35.3 12.7-56.2-.3-21 .5-48.4 0-69s1.4-49.6-1-68a41.6 41.6 0 0 0-34-35m-111 158a338 338 0 0 0 23.3-24.8c7.3-8.6 15.6-17.2 23-26 7.3-8.7 16.1-16.8 23-26 6.8-9 17.3-16 23-26 5.6-9.8 23.1-19.3 27-5.5 3.9 13.8-13.4 18.6-19 28.5-5.7 10-16 17-23 26-7.1 9.1-15 17.4-23 26-8 8.6-14.2 17-22.6 25.5-8.3 8.7-13.6 17.5-23 26-9.3 8.6-21.8-5-29-13.5-7.1-8.5-16.6-14.8-24.4-24.5-7.9-9.6-15.7-12-24-24-8.4-11.9 11.8-23.4 20-11 8.1 12.4 16.3 14.1 24.4 24.5 8.2 10.5 16.7 14.6 24.3 24.8Z"/>
  <path fill="none" d="M0 1004h1a11 11 0 0 1 10-7c-3.1-5.5 1.4-15.5 0-22s.7-15.1 0-22 .4-15 0-22 .3-14 0-21c-5.4.2-7.6-1.5-10-6H0v100Z"/>
  <path fill="none" stroke="#3C332A" stroke-width=".3" d="M293 1030c-7.6-10.2-16.1-14.3-24.3-24.8-8-10.4-16.3-12-24.4-24.5-8.2-12.4-28.4-.9-20 11 8.3 12 16.1 14.4 24 24 7.8 9.7 17.3 16 24.4 24.5 7.2 8.6 19.7 22.1 29 13.5 9.4-8.5 14.7-17.3 23-26 8.4-8.6 14.5-16.9 22.6-25.5 8-8.6 15.9-16.9 23-26 7-9 17.3-16 23-26 5.6-9.9 22.9-14.7 19-28.5-3.9-13.8-21.4-4.3-27 5.5-5.7 10-16.2 17-23 26-6.9 9.2-15.7 17.3-23 26-7.4 8.8-15.7 17.4-23 26A338 338 0 0 1 293 1030Z"/>
  <path fill="none" stroke="#3A312A" stroke-width=".3" d="M1055 1003c4-4.7 9.6-6.1 7-14-4.6-14-29-5.2-42-7-13-1.8-33.4.8-48 0-14.6-.8-32.6.4-48 0-15.4-.4-32.3.1-48 0h-96c-15.9 0-32.1-.2-48 0-15.9.2-33.3-.5-49 0-15.7.5-33-1.3-48 0s-34-2.8-48 0-34.5-8.8-42.2 5.8c-7.8 14.6 16 17.2 29.2 15.2 13.1-2 33.3 1 48 0 14.7-1 32.5.4 48 0s33.2.2 49 0c15.8-.2 32 .1 48 0h48c16-.1 32 .2 48 0s32 .4 48 0 32.2.8 48 0c15.8-.8 32.4 1.7 48 0 15.6-1.7 33 3.7 48 0Z"/>
  <path fill="none" stroke="#393224" stroke-opacity=".1" stroke-width=".3" d="M0 1482c1.7-38.8 1.1-79.3 1-119-.1-39.7.6-80.2 0-120s1.6-80.3 0-120 3.6-79.5 0-119H0v478Z"/>
  <path fill="none" stroke="#9D8E7C" stroke-width=".3" d="M401 1134c-27.6 1-55.4 0-83 0s-55.4 1-83 0c26 3.7 56 1 83 1s56.9 2.7 83-1Z"/>
  <path fill="none" stroke="#3A312A" stroke-width=".3" d="M405 1213c-27.2-3.3-61 .7-88 0s-61.4-1.8-86.3.7c-25 2.4-39.6 16.2-49.8 38.2-10.2 22-3.2 56.2-4.9 82.1-1.8 25.9 1.4 60.8 0 87-1.4 26.2 4.5 46.3 25.3 62.8 20.7 16.4 47 13.2 73.7 13.2 26.7 0 61.2-.3 88 0 26.8.3 52.2 2.6 72.8-14.2 20.5-16.9 25.5-36.5 24.2-62.8-1.3-26.3 1-62 0-88s4-59.7-5.7-81.3A61.6 61.6 0 0 0 405 1213m-4 262c-25.9 4.2-56.1 1-83 1s-57.2 3.2-83-1c-24.9-1.3-40-24.6-38-50s-2.4-62.3 0-89c2.4-26.7-7.2-58.2 7-82 14-24 43.5-20.1 69-20h89c25.5 0 55.2-4.4 69.8 19.3 14.5 23.6 4.7 55 7.2 81.7 2.5 26.8-2.2 63.5 0 89s-12.6 49.6-38 51Z"/>
  <path fill="none" stroke="#F06B79" stroke-width=".3" d="M1155 1272c-9.6-4-17.7-10.1-27-15-9.2-5-17.8-9.3-27-15-9-5.8-17.7-8.5-27-15-9.2-6.7-18.8-11.1-23.2.8-4.4 11.9-10.6 16.5-15 27s-10.9 16.8-15.5 26.5c-4.6 9.8-9.8 17.8-15 27-5.1 9.2-9.7 17.9-15 27-5.3 9.1-9.7 17.6-15 27-5.4 9.3-9.5 17-15.4 26.6-5.9 9.6-7.4 17-15 27s5.8 14.6 14.9 19.3c9 4.8 18 10 27 15 8.9 5 17.8 10.5 27 15 9 4.5 16.9 11 26.2 14.8 37-69.9 78.9-137.9 115-208Z"/>
  <path fill="none" stroke="#D6DF56" stroke-width=".3" d="M235 1475c27.5 1.5 55.5 0 83 0s55.5 1.5 83 0c25.4-1.4 40.2-25.5 38-51-2.2-25.5 2.5-62.3 0-89-2.5-26.8 7.3-58-7.3-81.8-14.5-23.6-44.2-19.1-69.7-19.2h-89c-25.5-.1-55-4-69 20-14.2 23.8-4.6 55.3-7 82-2.4 26.7 2 63.6 0 89s13.1 48.7 38 50m58-79c8-8 16-16 23.3-24.8 7.3-8.6 15.7-17.2 23-26 7.2-8.8 15.4-16.5 22.4-25.5 7.1-8.9 17.4-16 23-26 5.7-9.9 23.6-20 27.6-6 4.1 14-12.7 18.2-18.6 28-5.8 10-16 16.8-23 26-6.8 9.3-15.4 17-23 26-7.5 9-14.5 16.4-22.4 25.5a451 451 0 0 1-23.6 25.5c-9.2 9.3-20.3-2.6-28-11.5-7.6-8.8-16-14.8-24.4-24.5-8.6-9.6-15.3-13-24.2-24.8-9-11.7 10.3-23 19.2-11.2 8.8 12 16 14.4 24.4 24.5 8.5 10.2 16.5 14.8 24.3 24.8Z"/>
  <path fill="none" stroke="#CBAD8A" stroke-width=".3" d="M1088.7 1436.8c-.7 8.5 2.4 24 1.3 35.2-1.1 11.2-1.3 23.3-5.7 33.3-4.3 10-6.5 17-13 26s-8.8 12.2-18 21a123 123 0 0 1-35.6 23.4c-11.7 4.4-18.2 7-29.7 8.3 26.6-.4 61.2.5 87 0 25.8-.5 44.5-8.6 64.3-22.7 19.8-14 28-26.9 38-49 10-22.3 10.2-50.5 9.7-77.3-.5-26.8.3-59.3 0-87-.3-27.8.2-58 0-86-32 58.4-68.5 115.4-99 175Z"/>
  <path fill="none" stroke="#3C332A" stroke-width=".3" d="M293 1396c-7.8-10-15.8-14.6-24.3-24.8-8.4-10.1-15.6-12.6-24.4-24.5-8.9-11.8-28.2-.5-19.2 11.2 9 11.8 15.6 15.2 24.2 24.8 8.5 9.7 16.8 15.7 24.4 24.5 7.7 9 18.8 20.8 28 11.5a451 451 0 0 0 23.6-25.5c7.9-9.1 15-16.4 22.4-25.5 7.6-9 16.2-16.7 23-26 7-9.2 17.2-16 23-26 5.9-9.8 22.7-14 18.6-28-4-14-22-3.9-27.6 6-5.6 10-15.9 17.1-23 26-7 9-15.2 16.8-22.4 25.5-7.3 8.8-15.7 17.4-23 26A416 416 0 0 1 293 1396Z"/>
  <path fill="none" stroke="#695948" stroke-width=".3" d="M865 1344h-1c9.6 1 22.8 1.8 33 1s24.5 1.6 34 0 24.8 4.6 31-2c-5.7 4.4-16.8-.3-24 1-7.2 1.3-16.3-.6-24 0-7.7.6-17.1-.2-25 0-7.9.2-16 0-24 0Z"/>
  <path fill="none" stroke="#867665" stroke-width=".3" d="M852 1366h96c-2.4-4-14.8.2-20-1-5.3-1.2-14.8.5-21 0-6.2-.5-14.4.2-21 0s-14.2.1-21 0H613c-7-.1-14.1.2-21 0s-14.2.5-21 0c-6.8-.5-13.4 1.2-20 0 18 5.7 40.5-1 60 1s40.2-.8 60 0c19.8.8 41-.4 61 0s40-.1 60 0h60Z"/>
  <path fill="none" stroke="#CBAD8B" stroke-width=".3" d="M909 1537c.6-6 2.1-12.4 2-19-.1-6.6.5-13.5 1-20s.3-13.5 1-20-.3-13.8 1-20c1.3-6.2-.8-15 0-21s1-12 4.2-16.8c3.2-4.7 4.8-9.2 7.5-13.5 2.7-4.4 5.4-9.4 7.5-13.5 2.1-4 6.6-9.8 7.5-13.5 1-3.6 9-10.8 7.3-13.7h-96c-8.6 18.3-18.4 31-27.3 49.8-8.8 18.6-8.2 45-8.7 67.2-.5 22.3-5.8 49.2-1.3 71.3 4.5 22 35 22.5 48.6 10C877 1551.8 895 1546 909 1534c.2 1-.2 2 0 3Z"/>
  <path fill="none" stroke="#86786E" stroke-width=".3" d="M1022 1496a1252.5 1252.5 0 0 0-87-49c2.3 16.2-3.8 33.2-2 49 1.8 15.8-5.7 33.8-2 49 3.7 15.2 22.7-3.3 30.8-8.2 8-5 21.6-14.5 30.5-20.5 8.9-6 20.6-13.8 29.7-20.3Z"/>
  <path fill="none" stroke="#898940" stroke-width=".3" d="M401 1475c-27.5 1.5-55.5 0-83 0s-55.5 1.5-83 0c25.8 4.2 56.1 1 83 1s57.1 3.2 83-1Z"/>
  <path fill="none" d="M0 1606h124v-1c-63.2-1.3-116.7-62.2-124-122v123Z"/>
  <path fill="none" stroke="#393224" stroke-opacity=".1" stroke-width=".3" d="M124 1606h960v-1c-159.9 3.2-320.1 0-480 0-159.9 0-320.1 3.2-480 0v1Z"/>
  <path fill="none" stroke="None" d="M0 290h1c.5-24 11.5-48 25.8-67.2 14.3-19.3 29-31 51.3-42.7 22.3-11.7 51.6-13.9 79.9-13.1 28.3.8 64.2-.4 94 0 29.8.4 63.8-.3 94 0-4.8-30 4-65.8 39-64 35 1.8 71-1.4 106 0 3.5-52.4 48.9-97.3 100-103H0v290Z"/>
  <path fill="#3B322B" stroke="None" d="M1 290c-.8 40.8.5 81.1 0 122-.5 40.9.5 82 0 123s.8 82.1 0 123c-.8 40.9 1.7 82.2 0 123s3.7 82.3 0 123c2.4 4.5 4.6 6.2 10 6 17.7-.6 9.9-27.9 11-42 1.1-14.1-.5-36.8 0-53 .5-16.2-.2-37 0-54s-.1-35.5 0-53V387h494c20.5-.1 41.7.3 62 0 20.3-.3 42 .7 62 0s43 1.6 62 0 43.4 7.5 53-9v-1c1.2-17.7-28.3-10-42-11s-37.1.5-53 0c-15.9-.5-36.1.2-53 0s-35.7.1-53 0c-17.3-.1-35.5 0-53 0H22c1.5-29-4-68.7 5-95a113 113 0 0 1 41.2-58.8c22-17.7 46.5-23.7 76.8-23.2 30.3.5 68.1-.3 100 0 31.9.3 68.7-.2 101 0-1.2 22.2-2.6 56.8 24.7 63.3 27.3 6.6 56.6 1.4 85.3 2.7 28.7 1.3 59.1-.7 88 0s59.2-.6 88 0c28.8.6 59.6-.9 88 0s60.8-1.8 88 0c27.2 1.8 50.3-6.4 53-35 .6-10.6-.4-21.4 0-32 32.4-.3 68 .3 100 0s70.2.6 101 0c30.8-.6 54.4 6.5 77.3 23.8A106.8 106.8 0 0 1 1181 271c8.8 26.7 5.6 65.3 6 95H866c-9.7.1-29-3.3-28 10 0 .8.7 3.2 1 4 1.5 4.6 4.8 6 9 7 27.7 3.4 56-1.5 84 0s56.8-.7 85 0c28.2.7 56.7-.4 85 0 28.3.4 56.7-.3 85 0v262c0 21.8-.2 44.3 0 66 .2 21.7-.4 43.4 0 65s-.9 44.8 0 66c.9 21.3-2 44.5 0 65s-2.3 38-12.8 53.2c-10.4 15.2-14.6 27.9-23.5 42.5-8.9 14.6-15.5 27-23.6 41.4l-23.8 42.2c-8.2 14-15 27.9-23.2 41.8-8.2 13.9-15.8 28.2-23.9 42.1-8 14-15.6 28.5-23.5 42.5s-16 27.3-23.5 41.5c-7.5 14.3-16.3 27.9-24 42-7.7 14.2-15.9 28.5-23.2 42.8-6.2 6.6-21.5.4-31 2s-23.8-.8-34 0-23.4 0-33-1H733c-14.6 0-29.5.2-44 0s-28.5.4-43 0-29.6 1-44 0c-14.4-1-29.8 2-44 0s-21 16.6-7 21c6.6 1.2 13.2-.5 20 0 6.8.5 14.1-.2 21 0s14-.1 21 0h252c6.8.1 14.4-.2 21 0s14.8-.5 21 0c6.2.5 15.8-1.2 21 0 5.3 1.2 17.6-3 20 1 1.7 2.9-6.3 10-7.3 13.8-.9 3.6-5.4 9.4-7.5 13.4-2 4.1-4.8 9.1-7.5 13.5-2.7 4.3-4.3 8.8-7.5 13.5-3.1 4.8-3.4 10.7-4.2 16.8-.8 6 1.3 14.8 0 21-1.3 6.2-.3 13.5-1 20s-.5 13.5-1 20-1.1 13.4-1 20c.1 6.6-1.4 13-2 19-2.6 27.3 25.2 44.6 45.8 30.8 20.5-14 34.2-22 52.4-35.6 18.2-13.5 37.8-20.1 49.1-38.9a931 931 0 0 0 31.7-56.3c30.5-59.6 67-116.6 99-175 .2 28-.3 58.3 0 86 .3 27.8-.5 60.2 0 87 .5 26.8.2 55-9.8 77.2-10 22.2-18.1 35-37.9 49.1a107.7 107.7 0 0 1-64.3 22.7c-25.8.5-60.4-.4-87 0H255c-16.1 0-33.2-.2-49 0-15.8.2-32.7-.3-48 0-15.3.3-32.5.1-46-3a109.4 109.4 0 0 1-34.8-14.3c-11-6.7-17.8-12.8-26.5-22.5a98 98 0 0 1-19-29.9A103.6 103.6 0 0 1 22 1475c-.3-14.7.1-33.4 0-49v-293c-.1-15.6.3-34.2 0-49-.3-14.8.7-36.1 0-49-.7-12.9 5.4-37.5-11-38a11 11 0 0 0-10 7c3.6 39.5-1.6 79.3 0 119s-.6 80.2 0 120-.1 80.3 0 120 .7 80.2-1 119v1c7.3 59.8 60.8 120.7 124 122 159.9 3.2 320.1 0 480 0 159.9 0 320.1 3.2 480 0 25.5-.5 49.3-12.5 69.3-27.8 20-15.2 32.4-29.5 43.5-53.5 11-23.9 12.3-55.3 11.2-84.7-1-29.4 1-67 0-97s1.8-69 0-98 16.5-46.6 28-69c11.3-22.5 22.7-40 34.3-61.7 11.6-21.8 23.7-40.5 35-62 11.3-21.4 24-41.4 35.5-62.5 11.4-21.1 23.2-41.6 35-62 11.7-20.5 22.4-41.7 34.1-61.9 11.8-20.2 22.3-40.2 34.3-60.6 12-20.5 23.2-42.6 35-63 12-20.4 22.7-40.6 34.1-61 11.4-20.4 22.9-38.9 33.7-60.3 10.1 5.4 15 14.8 20 25a70.4 70.4 0 0 1 3.7 39.7c-2.8 11.5-9.9 20.8-15 31s-11.3 18.6-16.5 28.5c-5.1 10-10.8 20-16.1 29.9-5.3 9.9-11.8 19-16.9 29.1-5 10.1-11 19-16.1 28.9a421.7 421.7 0 0 1-16.8 29.1c-6.1 9.5-10 20.6-16 30-6 9.4-10.7 20-16.6 29.5-6 9.6-10.5 19.2-16 29-5.6 9.8-11.5 19-17 29s-10.5 19.9-16.6 29.4c-6.2 9.5-9 19.8-16 29-7.1 9.2-7.7 20.7-16.4 29.6-8.7 8.9-5.8 27.9 8 24 13.7-4 11-17.4 18.6-26.4 7.6-9 10.4-20.2 16.5-29.5 6-9.3 10.8-20.1 17-29 6.1-9 8.8-19.4 15.1-28.9 6.3-9.4 10.9-18.9 16.3-28.6 5.5-9.8 11.2-19.5 16.6-29.5 5.3-10 11.3-19.5 16.5-29.5 5.3-10 11.3-18.5 16.5-28.5 5.2-10 11.1-19.6 16.5-29.5l16.5-29.5 16-29c5.5-10 10.5-18 16.1-27.9 5.6-9.8 10.6-19.6 16.4-29.6A81 81 0 0 0 1593 681c.3-7.6.4-15.5 0-23-.6-11.2-6.1-21.7-10.8-31.3a82.2 82.2 0 0 0-19.3-23.6c-7.6-7.1 4.4-16.8 8.4-25.8s11.3-18.7 13.6-29.4c2.4-10.6 4.7-26.7.8-37.6-4-10.9-6-20-13-29A77.5 77.5 0 0 0 1518 450a80.1 80.1 0 0 0-34.6 3.3 81.8 81.8 0 0 0-45.6 40.4c-4.8 8.8-9.9 18.3-15 27-5 8.8-10.6 18.5-15.3 27-4.7 8.6-9.6 17.8-15.2 26.5-5.6 8.8-9 18.6-14.5 27.5-5.5 8.8-10.3 18.4-15.5 27.5-5.2 9.1-10.8 18.2-15.5 27.5-4.7 9.3-10.8 17.1-15.5 26.5a372 372 0 0 1-15.5 27.5c-5.3 9-9.8 19-15 28-5.2 9-10.5 17.3-15.5 26.5a813 813 0 0 1-15.5 27.5c-5.2 9.1-10 18.5-15.5 27.5s-9.3 18.2-15 27c-5.7 8.8-9.5 19-15.1 27.9-5.7 8.8-10.3 18.5-16.1 26.9V509c.1-32.2-.3-66.4 0-98 .3-31.6-.6-68.7 0-99 .6-30.3-5.1-54.6-19.8-78.3a127.3 127.3 0 0 0-49.4-48.5c-23.6-14.4-50.6-19-80.8-18.2-30.2.8-66.5-.4-98 0s-67.1-.3-99 0c-1.5-9.9 2-24.6 0-34a37 37 0 0 0-11.3-20.8c-6.5-7-14.8-8.9-24.7-9.2-9.9-.3-23.6.5-34 0-10.4-.5-23.8.9-34 0s-24.8 2-34 0-3.2-19.3-8-26c-4.8-6.7-5.8-16.6-10.8-23.2-5-6.7-9.1-13.2-15.3-18.7-6.1-5.6-10.4-12.4-17.8-16.2-7.4-3.8-14-8.8-22.3-11.7-8.4-2.9-19.5-5.8-28.8-6.2-9.2-.2-19.6 1-28-1h-1c-51.1 5.7-96.5 50.6-100 103-35-1.4-71 1.8-106 0s-43.8 34-39 64c-30.2-.3-64.2.4-94 0-29.8-.4-65.7.8-94 0-28.3-.8-57.6 1.4-80 13a137.6 137.6 0 0 0-51.2 42.8C12.5 242 1.5 266 1 290m838-152c2.5 12.3.9 26.8 1 40 .1 13.2 1.2 28.7-1 41-1.4 19.8-25.1 13.4-41 14-15.9.6-38.6-.3-56 0s-38-.1-56 0H575c-18.3.1-37.7-.2-56 0-18.3.2-38-.4-56 0s-38.8-.9-56 0c-17.2.9-38.5 2.8-39-17s1.2-36.8 0-55c-1.2-18.2-1.6-37.3 19-37 20.6.3 36.1-.3 56 0s36-.5 56 0 12.3-24.8 17.3-37.7c5-12.8 10.5-25.2 20.5-35.5 10-10.4 20-17.5 33.3-22.7 13.3-5.3 34.7-8.3 49.6-5.8a90.2 90.2 0 0 1 66.6 44.4A86.4 86.4 0 0 1 698 111c.8 17.9 27.6 12.9 43 13 15.4.1 40-.4 56 0s38-5.2 42 14m701 451c-32.9-18.5-65.6-37.7-99-55 12.8-23.3 21.6-51 50-60a57 57 0 0 1 71 34c10.7 29.2-7.3 56.5-22 81m-11 18c-37 69.5-77.8 137.6-115 207-34-16.3-66.6-36.8-100-55 38.5-69.1 77.6-137.8 116-207 33.3 17.9 65.7 37.1 99 55m-127 226c-76.9 141-158 280.1-235 421-11-4.6-19.5-11.2-30.2-16.8-10.8-5.5-20-11.2-31-17-11.1-5.7-17.6-11.5-30-17-12.5-5.5-1.1-18 4.5-28 5.5-9.9 11.3-20.9 17-30.9 5.7-10 11.4-19.8 17-30 5.6-10.1 11.6-20.5 17.5-30.5 5.8-10.1 11.2-21 17-31l17-30 17.1-30.9c5.6-10.3 11.8-20.4 17.4-30.6 5.6-10.2 11.1-20 17-30 5.8-10.1 11.3-20.8 17-31 5.8-10.2 12-20.2 17.5-30.5 5.4-10.4 11.4-19.8 17-30l17.1-30.9c5.7-10.3 11.7-20.5 17.1-30.9 33.4 17.7 65.8 37 99 55m-247 439c-36.1 70.1-78 138.1-115 208-9.3-3.8-17.1-10.3-26.3-14.8-9-4.5-18-10-27-15-8.9-5-17.9-10.2-27-15-9-4.7-22.4-9.3-14.8-19.3 7.6-10 9.1-17.4 15-27 6-9.5 10-17.3 15.4-26.7 5.3-9.3 9.7-17.8 15-26.9 5.3-9.1 9.9-17.8 15-27 5.2-9.2 10.4-17.2 15-27s11-16 15.5-26.5c4.4-10.5 10.6-15.1 15-27 4.4-12 14-7.5 23.3-.9s17.9 9.3 27 15c9 5.8 17.7 10 27 15 9.2 5 17.3 11 26.9 15.1m-133 224c-9 6.5-20.8 14.3-29.7 20.3-8.9 6-22.4 15.5-30.5 20.5-8.1 4.9-27 23.4-30.8 8.2-3.7-15.2 3.8-33.2 2-49-1.8-15.8 4.3-32.8 2-49 29.2 15.2 59.1 31.5 87 49Z"/>
  <path fill="#382D2C" fill-opacity=".1" stroke="None" d="M620 1V0h-28c8.4 2 18.8.8 28 1Z"/>
  <path fill="none" stroke="None" d="M620 1c9.3.4 20.4 3.3 28.8 6.2 8.3 3 15 7.9 22.3 11.7 7.4 3.8 11.6 10.6 17.8 16.2 6.2 5.5 10.4 12 15.3 18.7 5 6.6 6 16.5 10.8 23.2 4.8 6.7-1.2 24 8 26s23.8-.9 34 0 23.6-.5 34 0c10.4.5 24.1-.3 34 0 9.9.3 18.2 2.3 24.8 9.3A37 37 0 0 1 861 133c2 9.4-1.5 24.1 0 34 31.9-.3 67.5.4 99 0s67.8.8 98 0c30.2-.8 57.2 3.8 80.8 18.2a127.3 127.3 0 0 1 49.5 48.6c14.6 23.6 20.3 48 19.7 78.2-.6 30.3.3 67.4 0 99-.3 31.6.1 65.8 0 98v393c5.8-8.4 10.4-18 16-27 5.7-8.8 9.5-19 15.2-27.8 5.7-8.8 9.5-18 15-27s10.3-18.4 15.5-27.5a813 813 0 0 0 15.5-27.5c5-9.2 10.3-17.5 15.5-26.5 5.2-9 9.7-19 15-28 5.4-9 10.8-18 15.5-27.5 4.7-9.4 10.8-17.2 15.5-26.5 4.7-9.3 10.3-18.4 15.5-27.5 5.2-9 10-18.7 15.5-27.5 5.4-8.9 9-18.7 14.5-27.5 5.6-8.7 10.5-18 15.2-26.5 4.7-8.5 10.3-18.2 15.3-27 5.1-8.7 10.2-18.2 15-27a81.8 81.8 0 0 1 45.6-40.4 80.8 80.8 0 0 1 34.7-3.3 77.5 77.5 0 0 1 54.8 31.3c6.9 9 9 18.1 12.9 29 3.9 11 1.6 27-.8 37.6-2.3 10.7-9.6 20.4-13.6 29.4s-16 18.7-8.4 25.8a80 80 0 0 1 19.3 23.6c4.7 9.6 10.2 20.1 10.8 31.3h1V0h-279c8.7 8.1 8.8 18.6 15 29a110 110 0 0 0 19 25c8.8 9.3 19.4 9.2 32 13 12.6 3.8 5.2 22.4-6.2 23.8-11.5 1.3-18.7 10.9-28 16-9.3 5-15 16-21.1 23.9-6.1 7.9-.6 28.3-14.7 29.3s-12.2-17-16.8-25.2c-4.6-8.3-8.3-22.4-16.5-28.6-8.1-6.1-15.3-18-27.7-16.2-12.5 1.9-22.4-16.3-9.8-21.8 12.6-5.4 22.2-5 32.5-12.5a65.2 65.2 0 0 0 20.6-23.4c6.3-10.5 3-24 12.7-32.3H620v1m848 68c10.5 2 9.7 19.7 14.8 27.2 5 7.6 9 20.5 15.5 27.5 6.5 7.1 12 17.8 20.4 22.6 8.4 4.8 17.2 15.1 27.4 14.6 10.1-.5 29.4 6.4 23 18.1-6.6 11.8-19.6 7.9-27.8 15.3-8.3 7.3-18.3 9-26 16-7.8 7-16 12.5-22 21-6.1 8.4-13.9 17-16 27-2.3 9.9-.9 29.7-15 27.4-14-2.3-9.4-18.4-14.3-27.7s-8-20.2-13.8-29.2c-5.7-9-11.3-16.2-19-24-7.6-8-15.7-10.3-24.9-15.1-9.2-4.8-28 .1-29.3-13.7-1.3-13.8 17.6-13 26.7-16.3a131 131 0 0 0 27.5-14.5 95.6 95.6 0 0 0 22-21A90.7 90.7 0 0 0 1451 95c2.8-10.2 1-29.2 17-26m-153 121c9 2.5 8.4 19.8 14.3 26.8 5.8 6.8 9 18.5 17.5 24.4 8.4 6 16 15.7 27.9 14.1 11.9-1.6 18.3 16.8 7.5 22-10.7 5.1-19.3 6.7-28.4 13.5-9.1 6.7-15 11-22 20-7.2 9-9.6 18.4-11.6 30.4s-21.4 8.7-22-3.4c-.6-12.1-7.2-19.6-12-30-4.8-10.4-11.6-13.9-20-22-8.3-8.2-22.6-1.7-30.1-11.9-7.6-10.2 7.2-19 17.1-19.7 10-.7 19.4-9.4 26.6-15.4 7.1-6 14.7-15.2 17.2-24.8 2.4-9.7 1.4-28.6 18-24Z"/>
  <path fill="#3A312A" stroke="None" d="M1315 0h-9c-9.7 8.2-6.5 21.8-12.7 32.3a65.2 65.2 0 0 1-20.6 23.4c-10.3 7.5-19.9 7-32.5 12.5-12.6 5.5-2.7 23.7 9.8 21.8 12.5-1.8 19.6 10 27.8 16.3 8.1 6.1 11.8 20.2 16.4 28.5 4.6 8.3 2.7 26.1 16.8 25.2 14-1 8.6-21.4 14.7-29.3 6-7.9 11.8-18.9 21-24 9.4-5 16.6-14.6 28-16 11.5-1.3 19-19.9 6.3-23.7-12.6-3.8-23.2-3.7-32-13a110 110 0 0 1-19-25c-6.2-10.4-6.3-20.9-15-29m32 80c-13.7 9.2-28.7 20-37 35-8-13-16.9-28.3-31-36 10.9-10.1 26.3-20.2 33-35 10 13 20.3 27.8 35 36Z"/>
  <path fill="#89C5DC" stroke="None" d="M839 219c.9-13.3.1-26.6 0-40-.1-13.4 1.2-27.7 0-41-4-19.2-26-13.6-42-14-16-.4-40.6.1-56 0-15.4-.1-42.3 4.9-43-13a86.4 86.4 0 0 0-11.7-44.3 90.2 90.2 0 0 0-66.6-44.4c-15-2.5-36.3.5-49.6 5.8a90.6 90.6 0 0 0-33.4 22.6 102.2 102.2 0 0 0-20.4 35.6c-5 12.9 2.6 38.2-17.3 37.7-20-.5-36.1.3-56 0s-35.4.3-56 0-20.2 18.8-19 37c1.2 18.2-.5 35.2 0 55 .5 19.8 21.8 17.9 39 17 17.2-.9 38 .4 56 0s37.7.2 56 0c18.3-.2 37.7.1 56 0h111c18-.1 38.6.3 56 0s40.1.6 56 0c15.9-.6 39.6 5.8 41-14M611 70c32.5 4.6 50.3 43.8 30.8 70.8a45 45 0 0 1-76.1-6.5C550.7 104.8 576 65 611 70Z"/>
  <path fill="#D3DC56" stroke="None" d="M1347 80c-14.7-8.2-25-23-35-36-6.7 14.8-22.1 24.9-33 35 14.1 7.7 23 23 31 36 8.3-15 23.3-25.8 37-35Z"/>
  <path fill="#3A312A" stroke="None" d="M1468 69c-16-3.2-14.2 15.8-17 26a90.7 90.7 0 0 1-13.8 29.3 95.6 95.6 0 0 1-22 21 131 131 0 0 1-27.5 14.4c-9 3.4-28 2.5-26.7 16.3 1.3 13.8 20.1 9 29.3 13.7 9.2 4.8 17.3 7.2 25 15 7.6 8 13.2 15 19 24 5.7 9.1 8.8 20 13.7 29.3 4.9 9.3.2 25.4 14.3 27.7 14.1 2.3 12.8-17.5 15-27.5 2.1-10 9.9-18.5 16-27 6-8.4 14.2-14 22-21 7.7-7 17.7-8.6 26-16 8.2-7.3 21.2-3.4 27.7-15.2 6.5-11.7-12.8-18.6-23-18-10 .4-18.9-9.9-27.3-14.7-8.4-4.8-14-15.5-20.5-22.6-6.5-7-10.3-20-15.4-27.5S1478.5 71 1468 69m57 108a189.2 189.2 0 0 0-63 59c-8.6-25.9-29.4-48-52-63a111.3 111.3 0 0 0 57-57c13.7 24 32.8 48 58 61Z"/>
  <path fill="#3A322B" stroke="None" d="M611 70c-35-5-60.3 34.8-45.3 64.3a45 45 0 0 0 76 6.4c19.6-27 1.8-66-30.7-70.7m0 66c-5 2.2-6.8 1.8-11 0-15.1-2.2-20.7-22.7-12.7-33.7 8-11 25.2-15.1 36-1.5 10.7 13.5 1 29.3-12.3 35.2Z"/>
  <path fill="none" stroke="None" d="M600 136c3.2.4 7.8.5 11 0 13.3-5.9 23-21.7 12.3-35.3-10.8-13.5-28-9.4-36 1.6s-2.4 31.5 12.7 33.7Z"/>
  <path fill="#D4DD56" stroke="None" d="M1525 177c-25.2-13-44.3-37-58-61a111.3 111.3 0 0 1-57 57c22.6 15 43.4 37.1 52 63a189.2 189.2 0 0 1 63-59Z"/>
  <path fill="#392F2A" fill-opacity=".5" stroke="None" d="M611 136a45 45 0 0 1-11 0c4.2 1.8 6 2.2 11 0Z"/>
  <path fill="#5A6E74" stroke="None" d="M839 219c2.2-12.3 1.1-27.8 1-41-.1-13.2 1.5-27.7-1-40 1.2 13.3-.1 27.6 0 41 .1 13.4.9 26.7 0 40Z"/>
  <path fill="#6A5A50" stroke="None" d="M861 220c1.5-9.6 1-20.7 1-31 31.2-.7 70.6 1 101 0 30.4-1 56.6 4.4 79.2 21.8a113 113 0 0 1 42.6 58.4c9.7 26.6 3.4 67.4 5.2 96.8h97c-.4-29.7 2.8-68.3-6-95a107 107 0 0 0-41.8-59.3A115.9 115.9 0 0 0 1062 188c-30.8.6-69-.3-101 0s-67.6-.3-100 0c-.4 10.6.6 21.4 0 32Z"/>
  <path fill="#86786E" stroke="None" d="M755 377c4.5-3.7 14.2-.3 20-1 5.8-.8 15-.2 21 0s15.4-1.3 21 0 16.6-3.2 21 0c-1-13.3 18.3-9.9 28-10h224c-1.8-29.4 4.5-70.2-5.2-96.8a112.8 112.8 0 0 0-42.6-58.4c-22.6-17.4-48.8-22.8-79.2-21.8-30.4 1-69.8-.7-101 0 0 10.3.5 21.4-1 31-2.8 28.6-25.8 36.8-53 35-27.2-1.8-59.6.9-88 0s-59.2.6-88 0c-28.8-.6-59.1.7-88 0s-59.3 1.3-88 0c-28.7-1.3-58 3.9-85.3-2.7-27.3-6.5-26-41.1-24.7-63.3-32.3-.2-69.1.3-101 0-31.9-.3-69.7.5-100 0-30.3-.5-54.7 5.5-76.8 23.2A113 113 0 0 0 27 271c-9 26.3-3.5 66-5 95h479c17.5 0 35.7-.1 53 0 17.3.1 36.1-.2 53 0s37.1-.5 53 0c15.9.5 39.3-1 53 0 13.7 1 43.2-6.7 42 11Z"/>
  <path fill="#3A312A" stroke="None" d="M1315 190c-16.6-4.6-15.6 14.3-18 24a52.4 52.4 0 0 1-17.2 24.8c-7.2 6-16.6 14.7-26.6 15.4-9.9.7-24.7 9.5-17.1 19.7 7.5 10.2 21.8 3.7 30.2 11.9 8.3 8.1 15.1 11.6 20 22 4.8 10.4 11.3 17.9 12 30 .5 12 20 15.5 22 3.4 2-12 4.3-21.4 11.5-30.4 7-9 12.9-13.3 22-20 9-6.8 17.7-8.4 28.5-13.6 10.7-5.1 4.3-23.5-7.6-21.9-12 1.6-19.5-8-28-14-8.4-6-11.6-17.7-17.5-24.6-5.8-6.9-5.3-24.2-14.2-26.7m-2 43a94.2 94.2 0 0 0 34 36c-13.2 9.5-28.1 20.5-37 35-8.3-13.6-18.3-28-32-37a95.7 95.7 0 0 0 35-34Z"/>
  <path fill="#D3DB55" stroke="None" d="M1313 233a95.7 95.7 0 0 1-35 34c13.7 9 23.8 23.4 32 37 8.9-14.5 23.8-25.5 37-35a94.2 94.2 0 0 1-34-36Z"/>
  <path fill="#3A3224" fill-opacity=".1" stroke="None" d="M0 904h1c3.7-40.7-1.7-82.2 0-123s-.8-82.1 0-123c.8-40.9-.5-82 0-123s-.5-82.1 0-123c.5-40.9-.8-81.2 0-122H0v614Z"/>
  <path fill="#A19284" stroke="None" d="M755 377v1c11.4-5.8 28.2 1.3 41-1s28.9 1.7 42 0c.1 1-.5 2.7 1 3-.3-.8-1-3.2-1-4-4.4-3.2-15.4 1.3-21 0s-15 .2-21 0-15.2-.8-21 0c-5.8.8-15.5-2.7-20 1Z"/>
  <path fill="#FBE7CA" stroke="None" d="M755 378c-9.6 16.5-34 7.4-53 9-19 1.6-42-.7-62 0s-41.7-.3-62 0c-20.3.3-41.5-.1-62 0H22v321c-.1 17.5.2 36 0 53s.5 37.8 0 54c-.5 16.2 1.1 38.9 0 53-1.1 14.1 6.7 41.4-11 42 .3 7-.4 14 0 21s-.7 15.1 0 22-1.4 15.5 0 22-3.1 16.5 0 22c16.4.5 10.3 25.1 11 38 .7 12.9-.3 34.2 0 49 .3 14.8-.1 33.4 0 49v293c.1 15.6-.3 34.3 0 49 .3 14.7 4.5 27 9.7 39.3a98 98 0 0 0 19 30c8.7 9.7 15.5 15.7 26.5 22.5 11 6.7 21.3 11.1 34.8 14.2 13.5 3.1 30.7 3.3 46 3 15.3-.3 32.2.2 48 0 15.8-.2 32.9 0 49 0h733c11.5-1.4 18-4 29.7-8.3a123 123 0 0 0 35.5-23.5c9.3-8.7 11.6-11.9 18.1-20.9 6.5-9 8.7-16 13-26 4.4-10 4.6-22.1 5.7-33.3 1.1-11.2-2-26.7-1.3-35.2a1501 1501 0 0 1-32.4 56.5c-11.3 18.8-30.9 25.4-49 39-18.3 13.4-32 21.5-52.5 35.5-20.6 13.8-48.4-3.5-45.8-30.8-.2-1 .2-2 0-3-14 12-32 17.8-45.7 30.3-13.6 12.5-44 12-48.6-10-4.5-22 .8-49 1.3-71.3.5-22.3-.1-48.6 8.8-67.3 8.8-18.6 18.6-31.5 27.2-49.7h-60c-20-.1-40 .4-60 0s-41.2.8-61 0c-19.8-.8-40.5 2-60 0s-42 4.7-60-1c-14-4.4-7.2-23 7-21s29.6-1 44 0c14.4 1 29.5-.4 44 0s28.5-.2 43 0 29.4 0 44 0h132c6.5-11.4 12.4-22.7 19-34 6.5-11.4 12.2-22.8 19-34 6.6-11.3 12.4-22.7 19-34 6.5-11.5 12.6-23.4 19.3-34.7 6.7-11.3 12.6-22.6 19-34 6.4-11.4 12.8-22.6 19-34 6.3-11.3 13.7-23 19.6-34.4 6-11.3 13-22.7 19.4-33.7 6.4-11 11.5-23.8 19-33.9 7.5-10.1 10.7-26 17.7-34.3-15 3.7-32.4-1.7-48 0-15.6 1.7-32.2-.8-48 0-15.8.8-32-.4-48 0s-32-.2-48 0-32-.1-48 0h-48c-16 .1-32.2-.2-48 0-15.8.2-33.5-.4-49 0s-33.3-1-48 0c-14.7 1-34.9-2-48 0-13.1 2-37-.6-29.2-15.2 7.7-14.6 28.3-3 42.2-5.8 14-2.8 33 1.3 48 0s32.3.5 48 0c15.7-.5 33.1.2 49 0 15.9-.2 32.1 0 48 0h96c15.7.1 32.6-.4 48 0 15.4.4 33.4-.8 48 0 14.6.8 35-1.8 48 0s37.4-7 42 7c1.1-3.2 8.6-8.7 10.8-15.2 2.1-6.5 7-11.8 10.5-18.5 3.4-6.7 7.8-13.4 6.7-22.3-1.1-8.9.5-18.8 0-28-.5-9.3.2-19.6 0-29-.2-9.4.1-19.5 0-29V388c-80.5-.7-162.3 1.3-242-1-4.2-1-7.5-2.4-9-7-1.5-.3-.9-2-1-3-13.1 1.7-29.2-2.3-42 0s-29.6-4.8-41 1M404 488a63 63 0 0 1 48 33c11.2 19.5 8 49 8 73v81c0 24 3.3 51.1-11.3 69.7-14.6 18.5-29.6 27.5-53.7 27.3-24.1-.2-56.3 1-81 0-24.7-1-58.4 2.3-82 0s-35.7-14-48-33c-12.2-19.1-7.5-49.3-8-73-.5-23.7 0-57.2 0-81 0-23.8-3.4-51.3 11.3-69.7 14.7-18.4 29.3-27.6 53.7-27.3 24.4.3 55.4-1.5 81 0s56.4-3.7 82 0m651 132c14 4.4 7.3 23-7 21s-29.4.9-44 0c-14.6-.9-30.3.4-45 0s-29.2.2-44 0-30.2 0-45 0H737c-14.8.1-30.2-.2-45 0s-29.3-.5-44 0-30.4-1.1-45 0c-14.6 1.1-29.7-2.5-44 0s-22.7-16.4-8-21c18.8-6 41.7 1 62-1 20.3-2 42.3.9 63 0 20.7-.9 42 .3 63 0s43 0 64 0 42.1-.3 63 0 42.3-.9 63 0c20.7.9 42.6-2 63 0s44.2-5 63 1m-654 514c-26.1 3.7-56 1-83 1s-57 2.7-83-1a60.8 60.8 0 0 1-52.8-35.2c-10.7-21.7-5-55.8-6.2-81.8-1.2-26 1.3-61.7 0-88-1.3-26.3 3-47.1 23.8-64.3 20.7-17 46.2-14.8 73.2-14.7h89c27 0 52.8-2.7 73.8 14.3 20.9 16.9 25.4 37.4 24.2 63.7-1.2 26.3 1.1 61.9 0 88-1.1 26.2 4.2 60-6 82a60 60 0 0 1-53 36m4 79a61.6 61.6 0 0 1 49.3 37.7c9.7 21.6 4.6 55.3 5.7 81.3 1 26-1.3 61.7 0 88 1.3 26.3-3.7 46-24.2 62.8-20.6 16.8-46 14.5-72.8 14.2-26.8-.3-61.3 0-88 0-26.7 0-53 3.2-73.8-13.3-20.7-16.4-26.6-36.5-25.2-62.7 1.4-26.2-1.8-61.1 0-87s-5.3-60 5-82c10.1-22.1 24.8-35.9 49.7-38.3 24.9-2.5 59.4-1.4 86.3-.7 27 .7 60.8-3.3 88 0Z"/>
  <path fill="#CBAD8A" stroke="None" d="M1062 989c2.6 7.9-3 9.3-7 14-7 8.3-10.2 24.2-17.7 34.3-7.5 10.1-12.6 23-19 34-6.5 11-13.5 22.3-19.4 33.6-6 11.3-13.3 23-19.6 34.4-6.2 11.4-12.6 22.6-19 34-6.4 11.4-12.3 22.8-19 34-6.7 11.3-12.8 23.3-19.4 34.6-6.5 11.4-12.3 22.8-19 34-6.7 11.3-12.4 22.7-19 34-6.5 11.4-12.4 22.7-18.9 34.1 8 0 16.1.2 24 0 7.9-.2 17.3.6 25 0 7.7-.6 16.8 1.3 24 0 7.2-1.3 18.3 3.4 24-1 7.3-14.3 15.5-28.6 23.3-42.8 7.7-14.1 16.4-27.7 24-42 7.4-14.2 15.5-27.5 23.4-41.5 7.9-14 15.5-28.5 23.5-42.5s15.7-28.2 23.9-42.1c8.2-14 15-27.8 23.2-41.8 8.1-14.1 15.7-27.8 23.8-42.2 8-14.4 14.7-26.8 23.6-41.4 8.9-14.6 13-27.3 23.5-42.5A77.4 77.4 0 0 0 1187 911c-2-20.5.9-43.8 0-65-.9-21.3.4-44.4 0-66s.2-43.3 0-65c-.2-21.7 0-44.2 0-66V387c-28.3-.3-56.7.4-85 0-28.3-.4-56.8.7-85 0-28.2-.7-57 1.5-85 0s-56.3 3.4-84 0c79.7 2.3 161.5.3 242 1v459c.1 9.5-.2 19.6 0 29 .2 9.4-.5 19.8 0 29 .5 9.3-1.1 19.1 0 28 1.1 8.9-3.3 15.6-6.7 22.3-3.4 6.7-8.4 12-10.5 18.5-2.2 6.5-9.7 12-10.8 15.2Z"/>
  <path fill="#D5DE56" stroke="None" d="M1540 589c14.7-24.5 32.7-51.8 22-81a56.9 56.9 0 0 0-71-34c-28.4 9-37.2 36.7-50 60 33.4 17.3 66.1 36.5 99 55Z"/>
  <path fill="#3A312A" stroke="None" d="M404 488c-25.6-3.7-56.4 1.5-82 0s-56.6.3-81 0-39 8.9-53.7 27.3c-14.7 18.4-11.4 45.9-11.3 69.7 0 23.8-.5 57.3 0 81 .5 23.7-4.2 53.9 8 73 12.3 19 24.4 30.7 48 33 23.6 2.3 57.3-1 82 0 24.7 1 56.9-.2 81 0s39-8.8 53.7-27.3c14.6-18.6 11.2-45.7 11.3-69.7v-81c0-24 3.2-53.5-8-73a63 63 0 0 0-48-33m-4 21a44.5 44.5 0 0 1 39 49c-2 25.7 2.4 61.2 0 88-2.4 26.8 6.7 58.1-5.3 82.7-12 24.5-40.6 23-65.7 22.3-25.1-.7-62.5.8-88 0s-55.2 6-72.8-15.3C189.8 714.6 199 684 197 658s1.6-63.2 0-88c-1.6-24.8 3.6-51.7 29.7-58.3 26.1-6.6 57.4-3 85.3-2.7 27.9.3 60.1-3.4 88 0Z"/>
  <path fill="#D6DF56" stroke="None" d="M400 509c-27.9-3.4-60.1.3-88 0s-59.2-4-85.3 2.7c-26.1 6.6-31.3 33.5-29.7 58.3 1.6 24.8-2 62 0 88s-7.3 56.6 10.3 77.8c17.5 21.1 47.2 14.4 72.7 15.2 25.5.8 62.9-.7 88 0s53.6 2.2 65.7-22.3c12-24.6 2.9-56 5.3-82.7 2.4-26.8-2-62.3 0-88a44.5 44.5 0 0 0-39-49M287 693c-11.5-7-22.4-21.5-31.8-31.3-9.3-9.7-24.8-20-31.2-31.7-8.5-15.5 12.7-20.8 20.3-10.3 7.5 10.6 16.7 15.1 24.4 24.5 7.8 9.5 17 15.3 24.3 24.8 8-7.2 14.7-16 22.3-23.8 7.5-7.7 13.6-17 21.4-24.5 7.9-7.4 13.8-17.2 21.6-24.5 7.7-7.2 13.5-18 21.4-24.5 8-6.4 14-23.6 27-18.4 13 5.2 1.5 21-6 27.5-7.4 6.5-14.2 17-21.4 24.5-7.3 7.4-15 16.1-22 24-7.1 7.8-14.2 16.7-21.6 24.5-7.3 7.7-14.1 16.8-21.4 24.5-7.4 7.6-15.2 22-27.3 14.7Z"/>
  <path fill="#F06B79" stroke="None" d="M1529 607c-33.3-17.9-65.7-37.1-99-55-38.4 69.2-77.5 137.9-116 207 33.4 18.2 66 38.7 100 55 37.2-69.4 78-137.5 115-207Z"/>
  <path fill="#3B322A" stroke="None" d="M224 630c5 7.8 15 13.5 21.3 20.8 6.1 7.2 13.9 14.6 21 21 7 6.4 13.2 15.8 20.7 21.2 12 7.4 20-7.1 27.3-14.8 7.3-7.6 14-16.7 21.4-24.5 7.4-7.7 14.5-16.6 21.6-24.5 7-7.8 14.7-16.6 22-24 7.2-7.4 14-18 21.4-24.5 7.5-6.5 19-22.2 6-27.4-13-5.2-19 12-27 18.5-8 6.4-13.7 17.2-21.4 24.5-7.8 7.2-13.7 17-21.6 24.5-7.8 7.4-14 16.7-21.4 24.5-7.6 7.7-14.3 16.5-22.3 23.7-7.3-9.5-16.5-15.3-24.3-24.8-7.7-9.4-17-14-24.4-24.5-7.6-10.5-28.8-5.2-20.3 10.3Z"/>
  <path fill="#807364" stroke="None" d="M551 620c20.3-3.6 42.3 1.6 63 0 20.7-1.6 42.1.7 63 0s42 .3 63 0 42 0 63 0 42-.3 63 0 42.1-.7 63 0 42.3-1.6 63 0c20.7 1.6 42.7-3.6 63 0-18.8-6-42.6 1-63-1s-42.3.9-63 0c-20.7-.9-42.1.3-63 0s-42 0-63 0-43-.3-64 0-42.3-.9-63 0c-20.7.9-42.7-2-63 0-20.3 2-43.2-5-62 1Z"/>
  <path fill="#3C332B" stroke="None" d="M1055 620c-20.3-3.6-42.3 1.6-63 0-20.7-1.6-42.1.7-63 0s-42 .3-63 0-42 0-63 0-42-.3-63 0-42.1-.7-63 0-42.3-1.6-63 0c-20.7 1.6-42.7-3.6-63 0-14.7 4.6-6.3 23.5 8 21s29.4 1.1 44 0c14.6-1.1 30.3.5 45 0s29.2.2 44 0 30.2.1 45 0h133c14.8 0 30.2-.2 45 0s29.3-.4 44 0 30.4-.9 45 0c14.6.9 29.7-2 44 0s21-16.6 7-21Z"/>
  <path fill="none" stroke="None" d="M1084 1605v1h510V681h-1a81 81 0 0 1-11.7 34.3c-5.8 10-10.8 19.8-16.4 29.6-5.6 9.8-10.6 17.9-16.1 27.9l-16 29-16.5 29.5c-5.4 9.9-11.3 19.5-16.5 29.5-5.2 10-11.3 18.6-16.5 28.5-5.2 10-11.2 19.4-16.5 29.5-5.4 10-11 19.7-16.5 29.5-5.5 9.7-10 19.2-16.4 28.6-6.3 9.5-9 20-15.1 28.9-6.2 8.9-11 19.7-17 29-6.1 9.3-8.9 20.5-16.5 29.5s-4.9 22.5-18.6 26.4c-13.8 3.9-16.7-15.1-8-24s9.3-20.4 16.4-29.6c7-9.2 9.8-19.5 16-29 6.1-9.5 11-19.5 16.6-29.4 5.5-10 11.4-19.3 17-29 5.5-9.8 10-19.4 16-29 6-9.6 10.5-20.1 16.5-29.5 6-9.4 10-20.5 16-30 6.1-9.5 11.7-19.2 16.9-29.1 5.2-10 11-18.8 16.1-28.9 5.1-10 11.6-19.2 16.9-29.1 5.3-10 11-19.9 16.2-29.9 5.1-10 11.3-18.3 16.4-28.5 5.1-10.2 12.2-19.5 15-31a69.1 69.1 0 0 0-3.8-39.6c-5-10.3-9.8-19.7-19.9-25.1-10.8 21.4-22.3 40-33.7 60.3-11.4 20.4-22.2 40.6-34 61-12 20.4-23 42.5-35 63-12 20.4-22.6 40.4-34.4 60.6-11.8 20.2-22.4 41.4-34.2 61.9-11.7 20.4-23.5 40.9-35 62-11.4 21-24.1 41-35.4 62.5-11.3 21.5-23.4 40.2-35 62-11.6 21.8-23 39.2-34.4 61.6-11.4 22.5-29.7 40-27.9 69.1 1.8 29-1 68 0 98s-1 67.6 0 97c1 29.4-.2 60.8-11.3 84.8a130 130 0 0 1-43.5 53.5c-20 15.2-43.7 27.2-69.2 27.7Z"/>
  <path fill="#82813E" stroke="None" d="M287 693c-7.5-5.4-13.7-14.9-20.8-21.3-7-6.3-14.8-13.7-21-21-6.1-7.2-16.2-13-21.2-20.7 6.4 11.8 21.8 22 31.3 31.8 9.3 9.7 20.2 24.1 31.7 31.2Z"/>
  <path fill="#392E29" fill-opacity=".1" stroke="None" d="M1593 681h1v-23h-1c.4 7.5.3 15.4 0 23Z"/>
  <path fill="#89C5DC" stroke="None" d="M1402 833c-33.3-18-65.6-37.3-99-55-5.4 10.4-11.4 20.6-17 31-5.8 10.2-11.6 20.5-17.2 30.8s-11.6 19.6-17 30c-5.5 10.3-11.8 20.3-17.5 30.5-5.7 10.2-11.2 20.9-17 31-5.9 10-11.4 19.8-17 30-5.5 10.2-11.8 20.4-17.4 30.6l-17.1 30.9-17 30c-5.8 10-11.2 20.9-17 31-5.9 10-11.9 20.4-17.5 30.5-5.6 10.2-11.3 20-17 30-5.7 10-11.5 21-17 31-5.6 9.9-17 22.4-4.5 28 12.4 5.4 18.9 11.2 30 17 11 5.7 20.2 11.4 31 17 10.7 5.5 19.3 12 30.2 16.7 77-140.9 158.1-280 235-421Z"/>
  <path fill="#3B322A" stroke="None" d="M235 1134c27.6 1 55.4 0 83 0s55.4 1 83 0a60 60 0 0 0 53-36c10.2-22 4.9-55.8 6-82 1.1-26.1-1.2-61.7 0-88 1.2-26.3-3.3-46.8-24.3-63.8C414.9 847.4 389 850 362 850h-89c-27-.1-52.5-2.4-73.3 14.8-20.7 17-25 38-23.7 64.2 1.3 26.3-1.2 62 0 88s-4.5 60.1 6.2 81.8A60.8 60.8 0 0 0 235 1134m169-262a41.6 41.6 0 0 1 34 35c2.4 18.4.5 47.4 1 68s-.3 48 0 69 2.6 41-12.8 56.3c-15.3 15.3-35 13.3-56.2 12.7-21.1-.6-48 1-69 0s-48.8 2.3-68.2-.8c-19.4-3-31.4-15-34.8-34.2-3.4-19.3-.1-47-1-68s.5-48 0-69-2.5-40.9 12.8-56.3c15.2-15.3 34.7-13.6 56.2-12.7 21.5.9 47-1.7 69 0s47.1-3.6 69 0Z"/>
  <path fill="#D6DF57" stroke="None" d="M404 872c-21.9-3.6-47 1.7-69 0s-47.5.9-69 0-41-2.6-56.3 12.8C194.6 900 196.6 919.9 197 941c.5 21-.9 48 0 69s-2.4 48.7 1 68a39.2 39.2 0 0 0 34.8 34.2c19.4 3 47.1-.1 68.2.8 21 1 47.9-.6 69 0s41 2.6 56.3-12.8c15.3-15.3 13-35.3 12.7-56.2-.3-21 .5-48.4 0-69s1.4-49.6-1-68a41.6 41.6 0 0 0-34-35m-111 158a338 338 0 0 0 23.3-24.8c7.3-8.6 15.6-17.2 23-26 7.3-8.7 16.1-16.8 23-26 6.8-9 17.3-16 23-26 5.6-9.8 23.1-19.3 27-5.5 3.9 13.8-13.4 18.6-19 28.5-5.7 10-16 17-23 26-7.1 9.1-15 17.4-23 26-8 8.6-14.2 17-22.6 25.5-8.3 8.7-13.6 17.5-23 26-9.3 8.6-21.8-5-29-13.5-7.1-8.5-16.6-14.8-24.4-24.5-7.9-9.6-15.7-12-24-24-8.4-11.9 11.8-23.4 20-11 8.1 12.4 16.3 14.1 24.4 24.5 8.2 10.5 16.7 14.6 24.3 24.8Z"/>
  <path fill="none" stroke="None" d="M0 1004h1a11 11 0 0 1 10-7c-3.1-5.5 1.4-15.5 0-22s.7-15.1 0-22 .4-15 0-22 .3-14 0-21c-5.4.2-7.6-1.5-10-6H0v100Z"/>
  <path fill="#3C332A" stroke="None" d="M293 1030c-7.6-10.2-16.1-14.3-24.3-24.8-8-10.4-16.3-12-24.4-24.5-8.2-12.4-28.4-.9-20 11 8.3 12 16.1 14.4 24 24 7.8 9.7 17.3 16 24.4 24.5 7.2 8.6 19.7 22.1 29 13.5 9.4-8.5 14.7-17.3 23-26 8.4-8.6 14.5-16.9 22.6-25.5 8-8.6 15.9-16.9 23-26 7-9 17.3-16 23-26 5.6-9.9 22.9-14.7 19-28.5-3.9-13.8-21.4-4.3-27 5.5-5.7 10-16.2 17-23 26-6.9 9.2-15.7 17.3-23 26-7.4 8.8-15.7 17.4-23 26A338 338 0 0 1 293 1030Z"/>
  <path fill="#3A312A" stroke="None" d="M1055 1003c4-4.7 9.6-6.1 7-14-4.6-14-29-5.2-42-7-13-1.8-33.4.8-48 0-14.6-.8-32.6.4-48 0-15.4-.4-32.3.1-48 0h-96c-15.9 0-32.1-.2-48 0-15.9.2-33.3-.5-49 0-15.7.5-33-1.3-48 0s-34-2.8-48 0-34.5-8.8-42.2 5.8c-7.8 14.6 16 17.2 29.2 15.2 13.1-2 33.3 1 48 0 14.7-1 32.5.4 48 0s33.2.2 49 0c15.8-.2 32 .1 48 0h48c16-.1 32 .2 48 0s32 .4 48 0 32.2.8 48 0c15.8-.8 32.4 1.7 48 0 15.6-1.7 33 3.7 48 0Z"/>
  <path fill="#393224" fill-opacity=".1" stroke="None" d="M0 1482c1.7-38.8 1.1-79.3 1-119-.1-39.7.6-80.2 0-120s1.6-80.3 0-120 3.6-79.5 0-119H0v478Z"/>
  <path fill="#9D8E7C" stroke="None" d="M401 1134c-27.6 1-55.4 0-83 0s-55.4 1-83 0c26 3.7 56 1 83 1s56.9 2.7 83-1Z"/>
  <path fill="#3A312A" stroke="None" d="M405 1213c-27.2-3.3-61 .7-88 0s-61.4-1.8-86.3.7c-25 2.4-39.6 16.2-49.8 38.2-10.2 22-3.2 56.2-4.9 82.1-1.8 25.9 1.4 60.8 0 87-1.4 26.2 4.5 46.3 25.3 62.8 20.7 16.4 47 13.2 73.7 13.2 26.7 0 61.2-.3 88 0 26.8.3 52.2 2.6 72.8-14.2 20.5-16.9 25.5-36.5 24.2-62.8-1.3-26.3 1-62 0-88s4-59.7-5.7-81.3A61.6 61.6 0 0 0 405 1213m-4 262c-25.9 4.2-56.1 1-83 1s-57.2 3.2-83-1c-24.9-1.3-40-24.6-38-50s-2.4-62.3 0-89c2.4-26.7-7.2-58.2 7-82 14-24 43.5-20.1 69-20h89c25.5 0 55.2-4.4 69.8 19.3 14.5 23.6 4.7 55 7.2 81.7 2.5 26.8-2.2 63.5 0 89s-12.6 49.6-38 51Z"/>
  <path fill="#F06B79" stroke="None" d="M1155 1272c-9.6-4-17.7-10.1-27-15-9.2-5-17.8-9.3-27-15-9-5.8-17.7-8.5-27-15-9.2-6.7-18.8-11.1-23.2.8-4.4 11.9-10.6 16.5-15 27s-10.9 16.8-15.5 26.5c-4.6 9.8-9.8 17.8-15 27-5.1 9.2-9.7 17.9-15 27-5.3 9.1-9.7 17.6-15 27-5.4 9.3-9.5 17-15.4 26.6-5.9 9.6-7.4 17-15 27s5.8 14.6 14.9 19.3c9 4.8 18 10 27 15 8.9 5 17.8 10.5 27 15 9 4.5 16.9 11 26.2 14.8 37-69.9 78.9-137.9 115-208Z"/>
  <path fill="#D6DF56" stroke="None" d="M235 1475c27.5 1.5 55.5 0 83 0s55.5 1.5 83 0c25.4-1.4 40.2-25.5 38-51-2.2-25.5 2.5-62.3 0-89-2.5-26.8 7.3-58-7.3-81.8-14.5-23.6-44.2-19.1-69.7-19.2h-89c-25.5-.1-55-4-69 20-14.2 23.8-4.6 55.3-7 82-2.4 26.7 2 63.6 0 89s13.1 48.7 38 50m58-79c8-8 16-16 23.3-24.8 7.3-8.6 15.7-17.2 23-26 7.2-8.8 15.4-16.5 22.4-25.5 7.1-8.9 17.4-16 23-26 5.7-9.9 23.6-20 27.6-6 4.1 14-12.7 18.2-18.6 28-5.8 10-16 16.8-23 26-6.8 9.3-15.4 17-23 26-7.5 9-14.5 16.4-22.4 25.5a451 451 0 0 1-23.6 25.5c-9.2 9.3-20.3-2.6-28-11.5-7.6-8.8-16-14.8-24.4-24.5-8.6-9.6-15.3-13-24.2-24.8-9-11.7 10.3-23 19.2-11.2 8.8 12 16 14.4 24.4 24.5 8.5 10.2 16.5 14.8 24.3 24.8Z"/>
  <path fill="#CBAD8A" stroke="None" d="M1088.7 1436.8c-.7 8.5 2.4 24 1.3 35.2-1.1 11.2-1.3 23.3-5.7 33.3-4.3 10-6.5 17-13 26s-8.8 12.2-18 21a123 123 0 0 1-35.6 23.4c-11.7 4.4-18.2 7-29.7 8.3 26.6-.4 61.2.5 87 0 25.8-.5 44.5-8.6 64.3-22.7 19.8-14 28-26.9 38-49 10-22.3 10.2-50.5 9.7-77.3-.5-26.8.3-59.3 0-87-.3-27.8.2-58 0-86-32 58.4-68.5 115.4-99 175Z"/>
  <path fill="#3C332A" stroke="None" d="M293 1396c-7.8-10-15.8-14.6-24.3-24.8-8.4-10.1-15.6-12.6-24.4-24.5-8.9-11.8-28.2-.5-19.2 11.2 9 11.8 15.6 15.2 24.2 24.8 8.5 9.7 16.8 15.7 24.4 24.5 7.7 9 18.8 20.8 28 11.5a451 451 0 0 0 23.6-25.5c7.9-9.1 15-16.4 22.4-25.5 7.6-9 16.2-16.7 23-26 7-9.2 17.2-16 23-26 5.9-9.8 22.7-14 18.6-28-4-14-22-3.9-27.6 6-5.6 10-15.9 17.1-23 26-7 9-15.2 16.8-22.4 25.5-7.3 8.8-15.7 17.4-23 26A416 416 0 0 1 293 1396Z"/>
  <path fill="#695948" stroke="None" d="M865 1344h-1c9.6 1 22.8 1.8 33 1s24.5 1.6 34 0 24.8 4.6 31-2c-5.7 4.4-16.8-.3-24 1-7.2 1.3-16.3-.6-24 0-7.7.6-17.1-.2-25 0-7.9.2-16 0-24 0Z"/>
  <path fill="#867665" stroke="None" d="M852 1366h96c-2.4-4-14.8.2-20-1-5.3-1.2-14.8.5-21 0-6.2-.5-14.4.2-21 0s-14.2.1-21 0H613c-7-.1-14.1.2-21 0s-14.2.5-21 0c-6.8-.5-13.4 1.2-20 0 18 5.7 40.5-1 60 1s40.2-.8 60 0c19.8.8 41-.4 61 0s40-.1 60 0h60Z"/>
  <path fill="#CBAD8B" stroke="None" d="M909 1537c.6-6 2.1-12.4 2-19-.1-6.6.5-13.5 1-20s.3-13.5 1-20-.3-13.8 1-20c1.3-6.2-.8-15 0-21s1-12 4.2-16.8c3.2-4.7 4.8-9.2 7.5-13.5 2.7-4.4 5.4-9.4 7.5-13.5 2.1-4 6.6-9.8 7.5-13.5 1-3.6 9-10.8 7.3-13.7h-96c-8.6 18.3-18.4 31-27.3 49.8-8.8 18.6-8.2 45-8.7 67.2-.5 22.3-5.8 49.2-1.3 71.3 4.5 22 35 22.5 48.6 10C877 1551.8 895 1546 909 1534c.2 1-.2 2 0 3Z"/>
  <path fill="#86786E" stroke="None" d="M1022 1496a1252.5 1252.5 0 0 0-87-49c2.3 16.2-3.8 33.2-2 49 1.8 15.8-5.7 33.8-2 49 3.7 15.2 22.7-3.3 30.8-8.2 8-5 21.6-14.5 30.5-20.5 8.9-6 20.6-13.8 29.7-20.3Z"/>
  <path fill="#898940" stroke="None" d="M401 1475c-27.5 1.5-55.5 0-83 0s-55.5 1.5-83 0c25.8 4.2 56.1 1 83 1s57.1 3.2 83-1Z"/>
  <path fill="none" stroke="None" d="M0 1606h124v-1c-63.2-1.3-116.7-62.2-124-122v123Z"/>
  <path fill="#393224" fill-opacity=".1" stroke="None" d="M124 1606h960v-1c-159.9 3.2-320.1 0-480 0-159.9 0-320.1 3.2-480 0v1Z"/>
</svg>
